<?xml version="1.0" encoding="UTF-8"?>
<svg version="1.1" xmlns="http://www.w3.org/2000/svg" width="1024" height="1024">
<path d="M0 0 C12.27225586 10.58082528 23.49888436 22.3807771 34.92504883 33.85638428 C37.56275779 36.50441756 40.20337841 39.14954398 42.84375 41.79492188 C47.47807467 46.43872043 52.10991792 51.08497859 56.73986816 55.73313904 C58.37998548 57.3781395 60.02162386 59.02162386 61.66418457 60.66418457 C63.71957067 62.71957067 65.76777483 64.7816767 67.8125 66.84765625 C69.20828174 68.25265542 70.60411622 69.65760221 72 71.0625 C72.69867188 71.76955078 73.39734375 72.47660156 74.1171875 73.20507812 C76.85043325 75.95121654 79.50306307 78.61290431 82.5625 80.99609375 C84.68461516 82.74071727 86.2366051 84.38060726 87.99609375 86.46508789 C92.13206473 91.23535328 96.56263793 95.67725345 101.04516602 100.12033081 C102.53714243 101.59931909 104.02577553 103.08160502 105.51367188 104.56469727 C108.67294765 107.71265249 111.83616023 110.8566327 115 114 C118.67190789 117.64814783 122.34209557 121.29799344 126.00805664 124.95211792 C127.46097908 126.39865069 128.91692281 127.84209167 130.37304688 129.28540039 C156.11338469 154.93103668 156.11338469 154.93103668 160 167 C159.90890915 171.5469516 159.23506468 174.74567505 155.99609375 178.03515625 C152.03690485 180.63159956 147.95015102 182.12347296 143.5 183.6875 C142.65824219 183.99494141 141.81648438 184.30238281 140.94921875 184.61914062 C133.47596194 187.30833619 127.17288826 188.16016075 119.25 188.125 C117.96609375 188.13080078 117.96609375 188.13080078 116.65625 188.13671875 C111.02911666 188.12819279 105.58211739 187.71188947 100 187 C100 186.34 100 185.68 100 185 C98.741875 184.67 97.48375 184.34 96.1875 184 C79.57606268 178.3936399 66.04570455 161.16933547 54.00390625 149.0390625 C53.30797363 148.33813477 52.61204102 147.63720703 51.89501953 146.91503906 C50.74627547 145.75415934 49.60053984 144.59027778 48.46044922 143.42089844 C46.38434282 141.30216947 44.48915495 139.65943663 42 138 C42 137.34 42 136.68 42 136 C41.13371979 135.62218636 41.13371979 135.62218636 40.24993896 135.23674011 C37.71353712 133.84253789 36.03552969 132.26910345 34.00097656 130.2121582 C33.22627014 129.43407303 32.45156372 128.65598785 31.65338135 127.85432434 C30.82417175 127.01165512 29.99496216 126.1689859 29.140625 125.30078125 C28.27741638 124.43237106 27.41420776 123.56396088 26.52484131 122.66923523 C23.7617785 119.88835415 21.00546626 117.10090682 18.25 114.3125 C15.5080039 111.5427753 12.76453165 108.77455588 10.01800537 106.00932312 C8.309973 104.2891591 6.60461961 102.56632939 4.90240479 100.84040833 C0.6499526 96.55268131 -3.66848123 92.42669622 -8.2646637 88.50801086 C-11.03935095 86.09680186 -13.61193491 83.49526782 -16.1875 80.875 C-16.68185547 80.37613281 -17.17621094 79.87726563 -17.68554688 79.36328125 C-18.66111401 78.37871679 -19.6359078 77.39338534 -20.60986328 76.40722656 C-35.88919817 60.56015757 -35.88919817 60.56015757 -56.25 53.6875 C-63.71601821 54.30966818 -70.41515076 55.77546361 -76 61 C-76.66 61 -77.32 61 -78 61 C-78.28617187 61.58910156 -78.57234375 62.17820312 -78.8671875 62.78515625 C-80 65 -80 65 -81.0703125 66.68359375 C-84.76498979 72.82770525 -84.97444481 78.99407785 -84 86 C-81.94430998 92.21761982 -78.77765899 96.63185464 -74 101 C-74 101.66 -74 102.32 -74 103 C-73.45633789 103.21914063 -72.91267578 103.43828125 -72.35253906 103.6640625 C-69.22332793 105.44104915 -66.87314601 107.84104975 -64.359375 110.375 C-63.83232971 110.90013184 -63.30528442 111.42526367 -62.76226807 111.96630859 C-61.65383072 113.07338883 -60.54789954 114.1829833 -59.44433594 115.29492188 C-57.74893699 117.00106975 -56.0430839 118.69624047 -54.3359375 120.390625 C-53.25977442 121.46810892 -52.18423149 122.54621267 -51.109375 123.625 C-50.59695251 124.13337402 -50.08453003 124.64174805 -49.55657959 125.16552734 C-46 128.77005909 -46 128.77005909 -46 131 C-45.01 131.33 -44.02 131.66 -43 132 C-43 132.66 -43 133.32 -43 134 C-42.360625 134.268125 -41.72125 134.53625 -41.0625 134.8125 C-39 136 -39 136 -38 139 C-37.4225 139.268125 -36.845 139.53625 -36.25 139.8125 C-33.57593496 141.22381211 -32.15162514 143.12487171 -30.3046875 145.4765625 C-28.87056633 147.24711001 -28.87056633 147.24711001 -26.1875 149.25 C-25.465625 149.8275 -24.74375 150.405 -24 151 C-24 151.66 -24 152.32 -24 153 C-23.34 153 -22.68 153 -22 153 C-20.765625 154.2578125 -20.765625 154.2578125 -19.25 156.125 C-16.87018602 158.95289611 -14.41306441 161.60615116 -11.7421875 164.15625 C1.18453422 176.51124351 11.5067723 189.47704762 12.3125 208.0625 C12.13553563 224.34322247 3.19001883 238.80998117 -8 250 C-10.64458379 251.32229189 -12.67761301 251.09677194 -15.625 251.0625 C-16.62789062 251.05347656 -17.63078125 251.04445313 -18.6640625 251.03515625 C-19.82035156 251.01775391 -19.82035156 251.01775391 -21 251 C-21 250.34 -21 249.68 -21 249 C-21.66 248.67 -22.32 248.34 -23 248 C-23 247.34 -23 246.68 -23 246 C-23.556875 245.773125 -24.11375 245.54625 -24.6875 245.3125 C-27.66159588 243.62449964 -29.72008865 241.53323483 -32 239 C-32 238.34 -32 237.68 -32 237 C-32.66 237 -33.32 237 -34 237 C-34 236.34 -34 235.68 -34 235 C-34.58113524 234.74348789 -35.16227049 234.48697578 -35.76101589 234.22269058 C-38.2135042 232.88340714 -39.84640343 231.4080066 -41.82374573 229.43695068 C-42.57062149 228.69715973 -43.31749725 227.95736877 -44.08700562 227.19515991 C-44.89690948 226.38277863 -45.70681335 225.57039734 -46.54125977 224.73339844 C-47.401996 223.87777313 -48.26273224 223.02214783 -49.14955139 222.14059448 C-51.50923446 219.79243474 -53.86428989 217.43982343 -56.21694684 215.08463573 C-58.18997952 213.11053077 -60.16598723 211.13941691 -62.14194626 209.16824174 C-66.81582567 204.50546287 -71.484351 199.83737011 -76.1496582 195.16601562 C-80.93277974 190.37688814 -85.72492478 185.5969324 -90.52173001 180.82151389 C-94.65822178 176.70277573 -98.78873413 172.57810468 -102.91474193 168.44886422 C-105.37036411 165.99144672 -107.82805037 163.53619842 -110.29159737 161.08672333 C-138.22706316 133.29677412 -138.22706316 133.29677412 -146 116 C-146 115.34 -146 114.68 -146 114 C-146.66 113.67 -147.32 113.34 -148 113 C-148.92405604 110.42135146 -149.53480391 107.80076662 -150.203125 105.14453125 C-150.70848669 103.15033437 -151.2559138 101.16595366 -151.859375 99.19921875 C-154.42181359 90.4603362 -154.47727911 82.00240257 -154 73 C-153.96277832 72.29681641 -153.92555664 71.59363281 -153.88720703 70.86914062 C-152.27991075 45.50565201 -140.49566597 22.30228121 -122.1015625 4.82421875 C-87.26742203 -25.41285113 -36.6616525 -29.13999551 0 0 Z " fill="#5089FE" transform="translate(327,380)"/>
<path d="M0 0 C6.86531801 5.47311157 12.33669889 11.55300127 17.64453125 18.51953125 C18.30582031 19.30070312 18.96710938 20.081875 19.6484375 20.88671875 C33.16564889 38.7156825 38.56401381 63.54981571 35.92919922 85.4765625 C33.47687012 103.07612502 26.88535666 118.68653274 15.64453125 132.51953125 C14.93296875 133.42251953 14.93296875 133.42251953 14.20703125 134.34375 C11.56714105 137.61886378 8.74153607 140.67363493 5.64453125 143.51953125 C4.98453125 143.51953125 4.32453125 143.51953125 3.64453125 143.51953125 C3.64453125 144.17953125 3.64453125 144.83953125 3.64453125 145.51953125 C1.15834021 148.22509209 -1.43535492 150.58412007 -4.29296875 152.89453125 C-7.30401453 155.3298215 -9.6575132 158.13689375 -12.05859375 161.1640625 C-12.4865625 161.61136719 -12.91453125 162.05867187 -13.35546875 162.51953125 C-14.01546875 162.51953125 -14.67546875 162.51953125 -15.35546875 162.51953125 C-15.62359375 163.15890625 -15.89171875 163.79828125 -16.16796875 164.45703125 C-17.35546875 166.51953125 -17.35546875 166.51953125 -20.35546875 167.51953125 C-20.68546875 168.50953125 -21.01546875 169.49953125 -21.35546875 170.51953125 C-23.33503817 172.21041347 -25.33492071 173.87783597 -27.35546875 175.51953125 C-27.68546875 176.17953125 -28.01546875 176.83953125 -28.35546875 177.51953125 C-29.01546875 177.51953125 -29.67546875 177.51953125 -30.35546875 177.51953125 C-30.35546875 178.17953125 -30.35546875 178.83953125 -30.35546875 179.51953125 C-31.01546875 179.51953125 -31.67546875 179.51953125 -32.35546875 179.51953125 C-32.35546875 180.17953125 -32.35546875 180.83953125 -32.35546875 181.51953125 C-33.89453125 183 -33.89453125 183 -35.98046875 184.70703125 C-39.44334142 187.62959755 -42.33057783 190.67784027 -45.12890625 194.234375 C-45.53367187 194.65847656 -45.9384375 195.08257813 -46.35546875 195.51953125 C-47.01546875 195.51953125 -47.67546875 195.51953125 -48.35546875 195.51953125 C-48.35546875 196.17953125 -48.35546875 196.83953125 -48.35546875 197.51953125 C-49.01546875 197.51953125 -49.67546875 197.51953125 -50.35546875 197.51953125 C-50.60296875 198.13828125 -50.85046875 198.75703125 -51.10546875 199.39453125 C-52.59287244 201.92311752 -53.79224884 202.23792129 -56.35546875 203.51953125 C-56.64059326 204.11000244 -56.92571777 204.70047363 -57.21948242 205.30883789 C-58.61409253 208.02282768 -60.35947097 209.74902569 -62.53125 211.890625 C-63.77358398 213.12329102 -63.77358398 213.12329102 -65.04101562 214.38085938 C-66.34135742 215.65606445 -66.34135742 215.65606445 -67.66796875 216.95703125 C-68.52326172 217.80330078 -69.37855469 218.64957031 -70.25976562 219.52148438 C-71.90541882 221.14929161 -73.55288061 222.77527304 -75.20239258 224.39916992 C-78.35683724 227.50568448 -81.50024084 230.61543317 -84.54296875 233.83203125 C-86.35546875 235.51953125 -86.35546875 235.51953125 -88.35546875 235.51953125 C-88.72671875 236.38578125 -88.72671875 236.38578125 -89.10546875 237.26953125 C-90.53846863 239.84893104 -92.13971551 241.58074717 -94.35546875 243.51953125 C-95.01546875 243.51953125 -95.67546875 243.51953125 -96.35546875 243.51953125 C-96.35546875 244.17953125 -96.35546875 244.83953125 -96.35546875 245.51953125 C-100.05104987 248.6190509 -103.490496 249.12971559 -108.16015625 248.90625 C-113.31129444 247.99884309 -115.47084184 244.76397664 -118.32421875 240.75 C-126.78276798 227.69921602 -132.57230342 213.83214165 -129.7421875 198.11328125 C-126.70352989 186.01219545 -120.40486018 177.50159252 -112.03173828 168.60327148 C-111.42202242 167.95306502 -110.81230656 167.30285856 -110.18411446 166.63294888 C-103.91839125 159.99162707 -97.45945457 153.55164581 -90.95977402 147.14036751 C-88.84511852 145.05298868 -86.73540063 142.96072939 -84.62698364 140.86705017 C-78.64505244 134.92728522 -72.65990082 128.99085677 -66.65917969 123.07006836 C-62.95799529 119.41749204 -59.26672682 115.75514427 -55.58166885 112.0863018 C-54.18753786 110.7020191 -52.78977149 109.32138702 -51.3882103 107.94462776 C-49.43414998 106.0244595 -47.4929976 104.09205468 -45.55419922 102.15649414 C-44.69706581 101.32328896 -44.69706581 101.32328896 -43.82261658 100.47325134 C-37.96074241 94.56672912 -34.28743114 87.70045542 -34.10546875 79.26953125 C-34.2451787 71.50927841 -37.00842628 66.00941464 -42.2578125 60.34765625 C-48.76772006 54.67421726 -56.61255753 52.14748405 -65.18359375 52.30859375 C-78.68184768 53.61957525 -87.33478823 64.26416569 -96.23046875 73.39453125 C-98.2846457 75.50180078 -100.34532726 77.60239208 -102.41015625 79.69921875 C-103.31233887 80.62460449 -104.21452148 81.54999023 -105.14404297 82.50341797 C-107.35546875 84.51953125 -107.35546875 84.51953125 -109.35546875 84.51953125 C-109.69578125 85.38578125 -109.69578125 85.38578125 -110.04296875 86.26953125 C-111.69947388 89.10925433 -113.78114863 90.47177661 -116.35546875 92.51953125 C-117.35597164 93.64678249 -118.33402656 94.79421946 -119.29296875 95.95703125 C-121.21590715 98.27240606 -122.94585218 100.00942388 -125.29296875 101.95703125 C-128.56502369 104.69487314 -131.14122626 107.65713218 -133.83984375 110.9453125 C-134.34 111.46480469 -134.84015625 111.98429688 -135.35546875 112.51953125 C-136.01546875 112.51953125 -136.67546875 112.51953125 -137.35546875 112.51953125 C-137.35546875 113.17953125 -137.35546875 113.83953125 -137.35546875 114.51953125 C-138.99898332 115.88130047 -140.67069531 117.20915191 -142.35546875 118.51953125 C-144.03695131 120.17124913 -145.70209278 121.83967904 -147.35546875 123.51953125 C-148.13303024 124.30375458 -148.91059174 125.08797791 -149.7117157 125.89596558 C-150.9288903 127.1267131 -150.9288903 127.1267131 -152.1706543 128.38232422 C-156.78210712 133.04187684 -161.40023455 137.69471374 -166.02327251 142.34277153 C-168.8088567 145.14398543 -171.59157112 147.94793085 -174.36791992 150.75830078 C-177.07078039 153.49404681 -179.78116438 156.22213673 -182.4966526 158.94534683 C-183.52099493 159.9751704 -184.54272467 161.00760046 -185.56159019 162.04284286 C-199.39475486 176.08949884 -214.71377142 186.42554053 -234.87890625 187.51171875 C-249.07351814 187.54361675 -265.41041121 184.16160575 -276.35546875 174.51953125 C-278.41697263 171.42727543 -278.95580813 169.53464213 -278.8671875 165.83984375 C-277.2385203 158.45489475 -271.03066985 153.01239879 -265.35546875 148.51953125 C-264.26194572 147.31935834 -263.19329516 146.09627824 -262.14379883 144.85742188 C-258.50539447 140.64531658 -254.67342575 136.67617257 -250.7421875 132.73828125 C-250.04656204 132.03932739 -249.35093658 131.34037354 -248.63423157 130.62023926 C-247.17925183 129.16023921 -245.72295388 127.70155171 -244.26538086 126.24414062 C-242.02624764 124.0027936 -239.79526597 121.75353111 -237.56445312 119.50390625 C-236.14501982 118.08154352 -234.72511512 116.65965102 -233.3046875 115.23828125 C-232.63700851 114.56341675 -231.96932953 113.88855225 -231.28141785 113.1932373 C-230.35453911 112.27097351 -230.35453911 112.27097351 -229.40893555 111.33007812 C-228.59455269 110.51355774 -228.59455269 110.51355774 -227.76371765 109.68054199 C-226.35546875 108.51953125 -226.35546875 108.51953125 -224.35546875 108.51953125 C-224.10796875 107.9471875 -223.86046875 107.37484375 -223.60546875 106.78515625 C-222.16230676 104.16942514 -220.47330653 102.37179669 -218.35546875 100.26953125 C-217.30359375 99.20992187 -217.30359375 99.20992187 -216.23046875 98.12890625 C-214.35546875 96.51953125 -214.35546875 96.51953125 -212.35546875 96.51953125 C-212.15066895 95.99006897 -211.94586914 95.46060669 -211.73486328 94.9151001 C-209.77315042 91.50822983 -207.05371591 88.93993114 -204.28515625 86.19042969 C-203.66384827 85.56561707 -203.04254028 84.94080444 -202.40240479 84.29705811 C-200.35009181 82.23595158 -198.29056035 80.18223585 -196.23046875 78.12890625 C-194.80292959 76.7000201 -193.37568746 75.27083716 -191.94873047 73.84136963 C-188.95929764 70.84898904 -185.96627865 67.86025438 -182.97070312 64.87402344 C-179.12347927 61.03821446 -175.28533007 57.19347025 -171.44979858 53.34597397 C-168.50583964 50.39480469 -165.55715444 47.44839499 -162.60699463 44.5034256 C-161.18928009 43.08704878 -159.77305951 41.66917502 -158.3583374 40.24980927 C-156.38560476 38.27202278 -154.40661892 36.30071896 -152.42578125 34.33105469 C-151.83766663 33.7388916 -151.249552 33.14672852 -150.64361572 32.53662109 C-146.58399931 28.51953125 -146.58399931 28.51953125 -144.35546875 28.51953125 C-144.14921875 27.9884375 -143.94296875 27.45734375 -143.73046875 26.91015625 C-141.77585683 23.51179689 -139.13423158 21.00897197 -136.35546875 18.26953125 C-135.80890625 17.71523438 -135.26234375 17.1609375 -134.69921875 16.58984375 C-130.60885545 12.51953125 -130.60885545 12.51953125 -128.35546875 12.51953125 C-128.04029297 11.70742188 -128.04029297 11.70742188 -127.71875 10.87890625 C-119.44488457 -3.44033364 -99.23054721 -13.95518159 -84.01220703 -18.12207031 C-52.97256948 -25.78333035 -25.29406176 -19.01019811 0 0 Z " fill="#F64BA6" transform="translate(815.35546875,381.48046875)"/>
<path d="M0 0 C1.96583572 1.69221113 3.87867205 3.39525694 5.7722168 5.1640625 C6.32954089 5.68202393 6.88686499 6.19998535 7.46107769 6.73364258 C14.36259628 13.20340205 21.00141231 19.9375547 27.64927101 26.665802 C30.01382464 29.05744402 32.38310693 31.444308 34.75382996 33.82983398 C41.48377698 40.60211639 48.21062519 47.37739801 54.92163086 54.16845703 C59.05172008 58.34712769 63.19156415 62.5159156 67.33789635 66.6784668 C68.90638108 68.25681494 70.47121182 69.83880341 72.03220558 71.42456055 C74.21124701 73.63744985 76.40252122 75.83751358 78.59692383 78.03515625 C79.23034195 78.68452652 79.86376007 79.33389679 80.51637268 80.00294495 C88.1556214 87.59113256 96.78856582 90.88785598 107.57421875 91.03515625 C117.26967347 90.41111599 125.85515777 86.56695058 133 80 C133.99 78.515 133.99 78.515 135 77 C135.66 77 136.32 77 137 77 C137 76.34 137 75.68 137 75 C138.35546875 73.66796875 138.35546875 73.66796875 140.1875 72.1875 C143.30237295 69.6053518 146.17375061 66.90062438 149 64 C149.763125 63.2575 150.52625 62.515 151.3125 61.75 C154.4361552 58.55370166 157.33036619 55.19213293 160.23046875 51.79296875 C160.81441406 51.20128906 161.39835938 50.60960937 162 50 C162.66 50 163.32 50 164 50 C164.268125 49.360625 164.53625 48.72125 164.8125 48.0625 C166 46 166 46 169 45 C169.69752484 43.68254741 170.36002857 42.34635018 171 41 C172.13703219 39.67952183 173.32889081 38.40528323 174.55664062 37.16870117 C175.28500122 36.43080856 176.01336182 35.69291595 176.76379395 34.93266296 C177.55330444 34.14406387 178.34281494 33.35546478 179.15625 32.54296875 C179.97315308 31.72178055 180.79005615 30.90059235 181.63171387 30.05451965 C183.36422423 28.31626547 185.09936284 26.58062748 186.83691406 24.84741211 C189.47087444 22.21659085 192.09129495 19.57280315 194.7109375 16.92773438 C196.40022919 15.23616739 198.09030921 13.54538724 199.78125 11.85546875 C200.55456665 11.07294235 201.3278833 10.29041595 202.12463379 9.48417664 C212.66007907 -0.96418663 222.72541661 -7.23562147 237.6875 -8.25 C247.78962813 -8.07615841 256.30188572 -4.16423766 263.75 2.4375 C267.75294403 6.99640848 270.76693388 11.02840694 271.25 17.1875 C270.72169414 25.24416442 267.3782635 30.39858433 262.125 36.1875 C261.34962891 37.07211914 261.34962891 37.07211914 260.55859375 37.97460938 C256.62989139 42.42285046 252.61380341 46.68878473 248 50.4375 C244.92607461 52.9175602 244.92607461 52.9175602 242.5 56 C240.353041 58.5763508 238.21222171 60.51079813 235.6015625 62.5859375 C233.71088733 64.25526534 232.13332799 66.07886091 230.5 68 C227.59598682 71.41348918 224.44628398 74.12809668 221 77 C219.90022983 78.21452016 218.82211818 79.4488455 217.76098633 80.69726562 C214.26423182 84.73911543 210.59887153 88.56225386 206.82421875 92.34375 C205.8473687 93.32559265 205.8473687 93.32559265 204.8507843 94.32727051 C203.4899596 95.69311157 202.12782052 97.05764428 200.7644043 98.42089844 C198.67012569 100.51739269 196.58400998 102.62179814 194.49804688 104.7265625 C193.1697593 106.05777923 191.84100051 107.388526 190.51171875 108.71875 C189.88778732 109.34986694 189.2638559 109.98098389 188.62101746 110.63122559 C184.22885912 115 184.22885912 115 182 115 C181.76063721 115.56533447 181.52127441 116.13066895 181.2746582 116.71313477 C179.72937575 119.48552717 177.86486863 121.36018787 175.60546875 123.58984375 C174.73212891 124.45673828 173.85878906 125.32363281 172.95898438 126.21679688 C172.04439453 127.11462891 171.12980469 128.01246094 170.1875 128.9375 C169.28451172 129.83146484 168.38152344 130.72542969 167.45117188 131.64648438 C165.76033312 133.31993023 164.06744422 134.99130905 162.37182617 136.65991211 C159.03757249 139.94954891 155.72360814 143.25638427 152.45703125 146.61328125 C139.12960189 160.21631476 125.45278638 170.59946658 105.6875 171.3125 C90.2969893 170.96469185 76.74351467 164.88047165 66 154 C64.89091881 152.91113252 63.7801595 151.82397238 62.66796875 150.73828125 C61.50775071 149.59641694 60.34759529 148.45448901 59.1875 147.3125 C58.59001953 146.73177734 57.99253906 146.15105469 57.37695312 145.55273438 C55.87985327 144.07274424 54.43511269 142.54017218 53 141 C53 140.34 53 139.68 53 139 C52.1646875 138.6596875 52.1646875 138.6596875 51.3125 138.3125 C46.3961718 135.52215156 42.79767036 130.71324134 39.04760742 126.54931641 C33.25889528 120.18399389 27.20756915 114.10438965 21.09560585 108.05100632 C19.18897225 106.16208661 17.28618152 104.26936779 15.38432312 102.37564087 C9.98687291 97.00239405 4.58343079 91.63520017 -0.82397461 86.27197266 C-4.15410353 82.96853315 -7.47941838 79.6603116 -10.80176735 76.34904861 C-12.06422994 75.09280055 -13.32858764 73.83845402 -14.59485435 72.5860405 C-16.35120324 70.84878392 -18.10141958 69.105568 -19.8503418 67.36083984 C-20.37540314 66.8445401 -20.90046448 66.32824036 -21.44143677 65.79629517 C-25 62.22790196 -25 62.22790196 -25 60 C-25.556875 59.773125 -26.11375 59.54625 -26.6875 59.3125 C-29.62890344 57.64305481 -31.68594219 55.4187137 -34 53 C-35.51811027 51.47644847 -37.03917146 49.95583402 -38.5625 48.4375 C-40.04166667 46.95833333 -41.52083333 45.47916667 -43 44 C-43.67933594 43.32582031 -44.35867188 42.65164063 -45.05859375 41.95703125 C-52.20026757 34.75787917 -58.09000716 28.5275582 -58.5 18 C-58.25358256 11.27025469 -56.59748902 6.52533655 -51.75 1.8125 C-50.38875 0.9153125 -50.38875 0.9153125 -49 0 C-48.37738281 -0.42152344 -47.75476563 -0.84304688 -47.11328125 -1.27734375 C-32.73188366 -10.72797645 -13.90873592 -10.01489144 0 0 Z " fill="#6ED359" transform="translate(406,629)"/>
<path d="M0 0 C3.27859782 2.40288114 6.04190173 5.14883447 8.8046875 8.12109375 C10.31788107 9.85454145 10.31788107 9.85454145 12.3984375 10.7578125 C12.3984375 11.4178125 12.3984375 12.0778125 12.3984375 12.7578125 C13.0584375 12.7578125 13.7184375 12.7578125 14.3984375 12.7578125 C14.3984375 13.4178125 14.3984375 14.0778125 14.3984375 14.7578125 C15.8834375 15.2528125 15.8834375 15.2528125 17.3984375 15.7578125 C19.0859375 17.1953125 19.0859375 17.1953125 20.3984375 18.7578125 C20.3984375 19.4178125 20.3984375 20.0778125 20.3984375 20.7578125 C21.0584375 20.7578125 21.7184375 20.7578125 22.3984375 20.7578125 C22.3984375 21.4178125 22.3984375 22.0778125 22.3984375 22.7578125 C22.9759375 23.0053125 23.5534375 23.2528125 24.1484375 23.5078125 C26.72783729 24.94081238 28.45965342 26.54205926 30.3984375 28.7578125 C30.3984375 29.4178125 30.3984375 30.0778125 30.3984375 30.7578125 C30.97078125 31.0053125 31.543125 31.2528125 32.1328125 31.5078125 C34.74854361 32.95097449 36.54617206 34.63997472 38.6484375 36.7578125 C39.70804688 37.8096875 39.70804688 37.8096875 40.7890625 38.8828125 C42.3984375 40.7578125 42.3984375 40.7578125 42.3984375 42.7578125 C43.27930275 43.14972023 43.27930275 43.14972023 44.17796326 43.54954529 C46.53101104 44.82995216 48.05286696 46.18345463 49.92602539 48.09008789 C50.59674576 48.7674147 51.26746613 49.44474152 51.95851135 50.14259338 C52.67216354 50.87284225 53.38581573 51.60309113 54.12109375 52.35546875 C55.23392982 53.47966469 55.23392982 53.47966469 56.36924744 54.62657166 C58.73799813 57.01974872 61.10020783 59.41922437 63.4609375 61.8203125 C66.57112679 64.98355406 69.68775809 68.14023438 72.80859375 71.29296875 C73.52427017 72.02524185 74.23994659 72.75751495 74.97731018 73.51197815 C75.64487839 74.1861528 76.31244659 74.86032745 77.00024414 75.55493164 C77.58552383 76.15068497 78.17080353 76.74643829 78.77381897 77.36024475 C80.45914514 78.98857568 80.45914514 78.98857568 83.3984375 79.7578125 C84.0171875 80.4384375 84.0171875 80.4384375 84.6484375 81.1328125 C90.27542329 86.35787073 98.05172687 86.90133798 105.3984375 86.7578125 C112.82855803 85.75155676 118.02639891 83.98848165 123.3984375 78.7578125 C124.0584375 78.7578125 124.7184375 78.7578125 125.3984375 78.7578125 C125.7284375 77.7678125 126.0584375 76.7778125 126.3984375 75.7578125 C127.93655396 74.24217224 127.93655396 74.24217224 129.91064453 72.61889648 C134.59529349 68.64146874 138.89232924 64.35597688 143.203125 59.98046875 C144.85403779 58.31692938 146.5050832 56.65352162 148.15625 54.99023438 C150.73236378 52.38915058 153.30683912 49.78648209 155.87890625 47.18139648 C158.37850783 44.65177889 160.88413937 42.12826266 163.390625 39.60546875 C164.55149124 38.42441307 164.55149124 38.42441307 165.73580933 37.21949768 C166.80800217 36.14223671 166.80800217 36.14223671 167.90185547 35.04321289 C168.53058563 34.4070253 169.1593158 33.77083771 169.80709839 33.1153717 C171.3984375 31.7578125 171.3984375 31.7578125 173.3984375 31.7578125 C173.3984375 31.0978125 173.3984375 30.4378125 173.3984375 29.7578125 C174.0584375 29.7578125 174.7184375 29.7578125 175.3984375 29.7578125 C175.7696875 28.8296875 175.7696875 28.8296875 176.1484375 27.8828125 C177.60472389 25.40712563 178.77656256 24.80656248 181.3984375 23.7578125 C181.3984375 23.0978125 181.3984375 22.4378125 181.3984375 21.7578125 C182.0584375 21.7578125 182.7184375 21.7578125 183.3984375 21.7578125 C183.3984375 21.0978125 183.3984375 20.4378125 183.3984375 19.7578125 C184.69140625 18.48828125 184.69140625 18.48828125 186.5859375 16.9453125 C189.34836226 14.62623986 191.93257615 12.24097353 194.40234375 9.6171875 C202.37661573 1.17477055 210.89556527 -6.51762833 223.0625 -7.4453125 C233.42469733 -7.60935784 241.32296632 -6.02556701 249.41796875 0.72265625 C256.10142051 7.59066092 257.85470737 15.29496078 257.73046875 24.6015625 C255.98837777 41.1616744 235.86873062 55.45086481 224.87109375 66.453125 C223.07263551 68.25480015 221.27425108 70.05654898 219.47593689 71.85836792 C215.72653138 75.61373186 211.9751165 79.36707436 208.22241211 83.11914062 C203.88296621 87.45798183 199.5491749 91.80241626 195.21789175 96.14940464 C191.03778929 100.34412212 186.85220416 104.53333795 182.66448784 108.72045517 C180.88658678 110.49953937 179.11031412 112.28025238 177.33568001 114.06259537 C174.86787962 116.5401247 172.39390754 119.0113197 169.91821289 121.48095703 C168.81409309 122.59350609 168.81409309 122.59350609 167.68766785 123.72853088 C167.01637848 124.39562576 166.34508911 125.06272064 165.65345764 125.75003052 C165.06966874 126.33436419 164.48587984 126.91869785 163.88440037 127.5207386 C162.3984375 128.7578125 162.3984375 128.7578125 160.3984375 128.7578125 C160.1303125 129.3559375 159.8621875 129.9540625 159.5859375 130.5703125 C158.39926344 132.75629104 157.30244637 134.17113844 155.3984375 135.7578125 C154.7384375 135.7578125 154.0784375 135.7578125 153.3984375 135.7578125 C153.1715625 136.30953125 152.9446875 136.86125 152.7109375 137.4296875 C151.01117824 140.44473667 148.85038934 142.57011619 146.3984375 145.0078125 C145.068125 146.34585938 145.068125 146.34585938 143.7109375 147.7109375 C141.3984375 149.7578125 141.3984375 149.7578125 139.3984375 149.7578125 C139.0684375 150.7478125 138.7384375 151.7378125 138.3984375 152.7578125 C134.9412916 155.71674054 131.1772603 158.22835659 127.3984375 160.7578125 C126.75648438 161.18835938 126.11453125 161.61890625 125.453125 162.0625 C114.40821948 168.45170544 100.43414328 168.67716782 88.3984375 165.7578125 C75.13794005 161.58176865 66.88025189 153.49474297 57.3984375 143.7578125 C54.77884842 141.09559697 52.23131757 138.62138807 49.3359375 136.2578125 C46.59355583 133.92387066 44.62737314 131.56195733 42.3984375 128.7578125 C41.4909375 128.0359375 40.5834375 127.3140625 39.6484375 126.5703125 C38.9059375 125.9721875 38.1634375 125.3740625 37.3984375 124.7578125 C37.3984375 124.0978125 37.3984375 123.4378125 37.3984375 122.7578125 C36.50125 122.355625 36.50125 122.355625 35.5859375 121.9453125 C33.39995896 120.75863844 31.98511156 119.66182137 30.3984375 117.7578125 C30.3984375 117.0978125 30.3984375 116.4378125 30.3984375 115.7578125 C29.5889566 115.43679817 29.5889566 115.43679817 28.76312256 115.10929871 C25.54357692 113.26923485 23.14301726 110.75589016 20.56347656 108.1340332 C19.99052856 107.55977097 19.41758057 106.98550873 18.82727051 106.3938446 C16.93489595 104.49498216 15.04959971 102.58924359 13.1640625 100.68359375 C11.84424121 99.35749747 10.52390038 98.03191807 9.20306396 96.70683289 C5.72323736 93.21370014 2.24901069 89.71505495 -1.22363281 86.21478271 C-6.76600103 80.62933333 -12.31496345 75.0504572 -17.86737823 69.47499657 C-19.79731236 67.53492184 -21.72374583 65.59142199 -23.64984131 63.64753723 C-28.98719784 58.27400493 -34.29130878 52.93609557 -40.09861755 48.06242371 C-48.24674996 40.98954664 -53.01289551 32.26331664 -53.8515625 21.5703125 C-53.17309523 11.22368663 -49.37580691 4.65005188 -41.6015625 -2.2421875 C-28.56565535 -11.04897682 -12.59734149 -7.90811027 0 0 Z " fill="#FE9744" transform="translate(410.6015625,312.2421875)"/>
<path d="M0 0 C0.64324219 0.52335938 1.28648437 1.04671875 1.94921875 1.5859375 C1.94921875 2.2459375 1.94921875 2.9059375 1.94921875 3.5859375 C2.93921875 3.9159375 3.92921875 4.2459375 4.94921875 4.5859375 C14.46655514 14.31654754 18.79881598 27.21970838 18.94921875 40.5859375 C18.30187474 53.11851754 14.8920504 62.95002857 6.94921875 72.5859375 C6.22734375 73.5965625 5.50546875 74.6071875 4.76171875 75.6484375 C-3.02238606 84.74641987 -15.5468653 89.14589279 -27.11328125 90.4609375 C-40.91289721 91.14107421 -53.06329428 86.1680881 -63.55078125 77.2734375 C-72.72331904 68.38660171 -78.2288821 56.32537426 -79.05078125 43.5859375 C-79.11394531 42.93753906 -79.17710937 42.28914063 -79.2421875 41.62109375 C-79.90075474 30.21300962 -75.66567399 18.70647144 -69.05078125 9.5859375 C-68.6228125 8.96460938 -68.19484375 8.34328125 -67.75390625 7.703125 C-51.04161827 -14.21946453 -21.26453117 -13.89323149 0 0 Z " fill="#FE9745" transform="translate(542.05078125,255.4140625)"/>
<path d="M0 0 C8.81647802 7.18882054 14.79065064 17.85719455 17 29 C18.13513325 44.01619125 15.7099071 56.44560327 6.15625 68.6015625 C-2.87926978 78.65194139 -15.5346256 85.25633644 -29.0234375 86.21484375 C-43.69053994 86.65032779 -53.9770708 82.01528614 -66 74 C-66 73.34 -66 72.68 -66 72 C-66.99 71.67 -67.98 71.34 -69 71 C-78.31379715 60.10869197 -82.55571012 47.87274777 -82.3125 33.66015625 C-81.28709173 21.65006194 -76.12411078 10.01141434 -67 2 C-66.53464844 1.53207031 -66.06929687 1.06414062 -65.58984375 0.58203125 C-47.32607833 -16.87400007 -18.98569934 -14.17919318 0 0 Z " fill="#F54BA6" transform="translate(828,257)"/>
<path d="M0 0 C9.093764 9.70001493 13.15791235 21.93287063 13.06640625 35.125 C11.57385461 49.07011485 6.49148778 60.60018458 -3.93359375 70.125 C-16.71538245 79.80236626 -29.66708166 83.49469889 -45.58203125 81.8515625 C-57.67525191 79.82966756 -68.83549293 72.711335 -76.5234375 63.203125 C-85.05074616 50.63656488 -87.7804043 38.15254772 -85.46875 23.09765625 C-82.50265538 10.86470978 -75.76982781 -0.0652363 -65.14160156 -7.05322266 C-43.34635863 -20.15809773 -18.42662726 -17.86824461 0 0 Z " fill="#5089FD" transform="translate(264.93359375,260.875)"/>
<path d="M0 0 C0.66773438 0.51433594 1.33546875 1.02867187 2.0234375 1.55859375 C2.64992188 2.02136719 3.27640625 2.48414063 3.921875 2.9609375 C14.2795578 11.12496259 19.30615762 23.2097193 20.83203125 36.0078125 C21.59346963 50.13327144 15.97615837 62.42737116 6.7578125 72.859375 C-2.87612281 82.36944542 -14.56883486 86.89143247 -27.9765625 87.05859375 C-41.4034352 86.89105453 -51.61948194 82.44557332 -61.421875 73.26953125 C-71.38794158 62.90876896 -75.38803428 50.95307274 -75.34521484 36.76831055 C-74.94836369 22.86400111 -68.92168654 11.62384507 -58.9140625 2.15234375 C-41.98468624 -11.7734335 -17.88006425 -12.94206816 0 0 Z " fill="#6ED158" transform="translate(539.9765625,604.44140625)"/>
<path d="M0 0 C6.50716882 4.62803591 11.03257702 10.60482033 12.5546875 18.55859375 C13.53538091 28.11334958 12.00463577 35.03544416 5.93821716 42.56491089 C-2.36075123 51.78572265 -11.20507523 60.4826394 -19.97265625 69.25390625 C-21.77111449 71.0555814 -23.56949892 72.85733023 -25.36781311 74.65914917 C-29.11721862 78.41451311 -32.8686335 82.16785561 -36.62133789 85.91992188 C-40.96078379 90.25876308 -45.2945751 94.60319751 -49.62585825 98.95018589 C-53.80596071 103.14490337 -57.99154584 107.3341192 -62.17926216 111.52123642 C-63.95716322 113.30032062 -65.73343588 115.08103363 -67.50806999 116.86337662 C-69.97587038 119.34090595 -72.44984246 121.81210095 -74.92553711 124.28173828 C-76.02965691 125.39428734 -76.02965691 125.39428734 -77.15608215 126.52931213 C-77.82737152 127.19640701 -78.49866089 127.86350189 -79.19029236 128.55081177 C-79.77408126 129.13514544 -80.35787016 129.7194791 -80.95934963 130.32151985 C-82.4453125 131.55859375 -82.4453125 131.55859375 -84.4453125 131.55859375 C-84.7753125 132.54859375 -85.1053125 133.53859375 -85.4453125 134.55859375 C-86.1053125 134.22859375 -86.7653125 133.89859375 -87.4453125 133.55859375 C-84.07193217 129.23645021 -80.45660645 125.7609426 -76.28515625 122.2109375 C-74.30578717 120.52389358 -74.30578717 120.52389358 -72.4453125 118.05859375 C-70.73619256 115.92219383 -69.20225475 114.42954717 -67.1328125 112.68359375 C-62.71490685 108.91241573 -58.6162305 104.84723506 -54.5078125 100.74609375 C-53.83258545 100.07529785 -53.1573584 99.40450195 -52.46166992 98.71337891 C-51.51191284 97.76084229 -51.51191284 97.76084229 -50.54296875 96.7890625 C-49.68457397 95.92897583 -49.68457397 95.92897583 -48.80883789 95.05151367 C-47.34468674 93.58481997 -47.34468674 93.58481997 -46.4453125 91.55859375 C-45.7853125 91.55859375 -45.1253125 91.55859375 -44.4453125 91.55859375 C-44.4453125 90.89859375 -44.4453125 90.23859375 -44.4453125 89.55859375 C-43.7853125 89.55859375 -43.1253125 89.55859375 -42.4453125 89.55859375 C-42.4453125 88.89859375 -42.4453125 88.23859375 -42.4453125 87.55859375 C-40.8359375 86.0078125 -40.8359375 86.0078125 -38.6953125 84.24609375 C-35.52769901 81.5709714 -33.01438285 78.81933689 -30.4453125 75.55859375 C-29.7853125 75.55859375 -29.1253125 75.55859375 -28.4453125 75.55859375 C-28.4453125 74.89859375 -28.4453125 74.23859375 -28.4453125 73.55859375 C-26.90625 72.078125 -26.90625 72.078125 -24.8203125 70.37109375 C-22.11064473 68.07500685 -19.69234534 65.80841571 -17.4453125 63.05859375 C-15.35911105 60.5293549 -13.18885191 58.37557641 -10.6953125 56.24609375 C-0.61316283 47.61530919 9.51832617 38.74948017 10.9296875 24.87109375 C10.7546115 18.36827073 8.1206978 12.2266113 4.8671875 6.68359375 C-3.02403113 -0.56779635 -11.1468007 -1.93128655 -21.55078125 -1.7109375 C-31.83767659 -0.99900593 -38.34192719 3.33243388 -45.4453125 10.55859375 C-46.1053125 10.22859375 -46.7653125 9.89859375 -47.4453125 9.55859375 C-35.82261283 -4.27405586 -16.04245196 -9.4563335 0 0 Z " fill="#F9802F" transform="translate(655.4453125,309.44140625)"/>
<path d="M0 0 C15.18813998 2.33255902 28.20200248 20.10562246 38.45614624 30.50324249 C41.68738066 33.77702619 44.92836427 37.04108817 48.16871643 40.30584335 C54.1802176 46.36284385 60.18769435 52.42370744 66.17871094 58.50097656 C70.36794296 62.74976745 74.56943 66.98609811 78.77914429 71.21459198 C80.37199797 72.81913719 81.96032217 74.42819287 83.54385376 76.04193878 C85.76116606 78.3005118 87.99382812 80.54281478 90.23046875 82.78222656 C90.87076019 83.44206543 91.51105164 84.1019043 92.17074585 84.78173828 C96.91017575 89.47980359 101.90395779 92.325113 108 95 C106.26756191 95.65554905 106.26756191 95.65554905 104 96 C97.57403915 93.04870332 92.38770994 87.80862176 87.49584961 82.82055664 C86.80512863 82.12866745 86.11440765 81.43677826 85.40275574 80.72392273 C83.14554227 78.45958466 80.89904387 76.18492175 78.65234375 73.91015625 C77.07084899 72.32051186 75.48860651 70.73161104 73.90565491 69.14341736 C69.75453334 64.97524453 65.61207133 60.79857742 61.47186279 56.61956787 C54.84521807 49.93355577 48.20578386 43.26025059 41.56567574 36.58761406 C39.25866735 34.26674318 36.95557494 31.94204319 34.65306091 29.61671448 C33.22704729 28.18066816 31.80094995 26.74470498 30.37475586 25.30883789 C29.7444043 24.67017792 29.11405273 24.03151794 28.46459961 23.37350464 C24.72042756 19.61097284 20.85610701 16.04811436 16.83252811 12.58557796 C15.02704807 11.02340309 13.26182042 9.42357318 11.5 7.8125 C7.97295488 4.77419093 4.22466632 2.92704078 0 1 C0 0.67 0 0.34 0 0 Z " fill="#58B940" transform="translate(394,624)"/>
<path d="M0 0 C3.84612364 1.56693926 6.12412231 4.05564903 9 7 C10.423125 8.1446875 10.423125 8.1446875 11.875 9.3125 C15.07610137 11.9211096 17.66177796 14.94684808 20.33984375 18.078125 C23.89422277 22.19284142 27.75527711 25.62598949 32 29 C32.598125 29.639375 33.19625 30.27875 33.8125 30.9375 C42.44229424 39.07416314 52.34355348 41.51982376 63.9375 41.375 C64.86240234 41.38660156 65.78730469 41.39820313 66.74023438 41.41015625 C75.69504073 41.37250465 83.42085874 39.55807478 90.875 34.4375 C93.85803234 32.4154737 96.73205294 30.52757525 100 29 C94.60560874 37.19148303 85.45722781 41.42208144 76.13500977 43.65551758 C62.33257408 46.45020485 48.9682279 43.95172581 36.8671875 36.7265625 C30.56830608 32.31479535 25.34357906 26.48735249 20 21 C17.38041092 18.33778447 14.83288007 15.86357557 11.9375 13.5 C9.19511833 11.16605816 7.22893564 8.80414483 5 6 C4.0925 5.278125 3.185 4.55625 2.25 3.8125 C1.5075 3.214375 0.765 2.61625 0 2 C0 1.34 0 0.68 0 0 Z " fill="#F8812E" transform="translate(448,435)"/>
<path d="M0 0 C0.64324219 0.52335938 1.28648437 1.04671875 1.94921875 1.5859375 C1.94921875 2.2459375 1.94921875 2.9059375 1.94921875 3.5859375 C-0.44957295 2.40134901 -2.82137745 1.17904735 -5.1875 -0.0703125 C-18.15355124 -6.86187975 -29.97977813 -9.52737843 -44.3984375 -5.47265625 C-57.01698735 -0.53921031 -66.72027368 7.02116426 -72.3984375 19.5625 C-75.07636648 26.68444731 -76.20158674 33.34620541 -76.61328125 40.8984375 C-76.65646484 41.63900391 -76.69964844 42.37957031 -76.74414062 43.14257812 C-76.84948557 44.95685214 -76.95056441 46.771373 -77.05078125 48.5859375 C-77.38078125 48.5859375 -77.71078125 48.5859375 -78.05078125 48.5859375 C-81.03387124 37.02646379 -78.08740961 24.27571797 -72.17578125 14.0859375 C-71.16277818 12.5664329 -70.12297775 11.06426903 -69.05078125 9.5859375 C-68.6228125 8.96460938 -68.19484375 8.34328125 -67.75390625 7.703125 C-51.04161827 -14.21946453 -21.26453117 -13.89323149 0 0 Z " fill="#F98127" transform="translate(542.05078125,255.4140625)"/>
<path d="M0 0 C0.495 0.99 0.495 0.99 1 2 C-5.33685324 9.62446284 -12.39692769 16.52439892 -19.4140625 23.51171875 C-20.71509419 24.81088108 -22.0159021 26.11026754 -23.3164978 27.40986633 C-26.72190606 30.8114801 -30.1303048 34.21008161 -33.53936768 37.60803223 C-37.00462123 41.06304345 -40.46703909 44.52089384 -43.9296875 47.97851562 C-49.52170075 53.56177126 -55.11540166 59.14332906 -60.71144104 64.72254944 C-63.0628661 67.06708431 -65.4118974 69.41379353 -67.75448608 71.76716614 C-70.37799331 74.37585885 -73.13273854 76.66618253 -76 79 C-74.68916028 76.10421399 -73.29011382 74.04290176 -71.03955078 71.80577087 C-70.43387268 71.1987886 -69.82819458 70.59180634 -69.2041626 69.96643066 C-68.2097818 68.98519226 -68.2097818 68.98519226 -67.1953125 67.98413086 C-66.14630768 66.9370974 -66.14630768 66.9370974 -65.07611084 65.86891174 C-62.76363464 63.56292611 -60.44427046 61.26399409 -58.125 58.96484375 C-56.51788476 57.36399878 -54.9112835 55.76263766 -53.30517578 54.16078186 C-49.07526554 49.9441788 -44.83982706 45.73317617 -40.6027832 41.52374268 C-33.81931312 34.78338113 -27.04253428 28.03630871 -20.26898193 21.28598213 C-17.89929851 18.92653728 -15.52623918 16.5705268 -13.15283203 14.21482849 C-11.70333575 12.77215916 -10.25394831 11.32938048 -8.8046875 9.88647461 C-7.8103067 8.90219986 -7.8103067 8.90219986 -6.7958374 7.89804077 C-6.1901593 7.29387833 -5.5844812 6.68971588 -4.96044922 6.06724548 C-4.43393768 5.54425338 -3.90742615 5.02126127 -3.36495972 4.48242092 C-1.7792542 2.83737492 -1.7792542 2.83737492 0 0 Z " fill="#EC3889" transform="translate(778,474)"/>
<path d="M0 0 C3.01652866 2.22635832 5.03375006 4.58631259 7.20703125 7.62890625 C4.3253407 6.29596569 2.03050864 4.76478342 -0.41796875 2.75390625 C-10.0109786 -4.40139177 -20.06327221 -5.99443921 -31.79296875 -4.37109375 C-38.73465182 -2.39773479 -43.9541883 1.5223314 -47.79296875 7.62890625 C-52.65694367 16.83901846 -50.62393534 25.82015665 -48.79296875 35.62890625 C-50.79296875 34.62890625 -50.79296875 34.62890625 -51.64453125 32.58984375 C-54.29216542 23.73765275 -54.80326958 16.16983174 -50.79296875 7.62890625 C-45.72295867 0.44639198 -40.03363482 -4.88425759 -31.3828125 -6.9453125 C-19.70173749 -8.86573056 -9.91262552 -6.22856312 0 0 Z " fill="#F77F29" transform="translate(410.79296875,312.37109375)"/>
<path d="M0 0 C10.5859375 10.5859375 21.171875 21.171875 31.7578125 31.7578125 C32.31026138 32.3099794 32.86271027 32.8621463 33.43190002 33.43104553 C34.88493118 34.88486848 36.33504824 36.34160235 37.78491211 37.79858398 C39.97648941 39.97663452 42.2372954 42.02845145 44.5625 44.0625 C50.43436315 49.20165232 50.43436315 49.20165232 53 52 C53 52.66 53 53.32 53 54 C53.99 54.33 54.98 54.66 56 55 C57.84499398 56.87617698 59.3683599 58.92737609 61 61 C57.15296072 60.43800516 55.41794405 58.77830236 52.72558594 56.05029297 C51.89081726 55.21207001 51.05604858 54.37384705 50.19598389 53.51022339 C49.30115295 52.59677155 48.40632202 51.6833197 47.484375 50.7421875 C46.06329764 49.31099762 44.64221778 47.87981021 43.22099686 46.44876289 C41.22888285 44.43910213 39.24373593 42.42262508 37.25848389 40.40618896 C33.33000259 36.41857778 29.3890407 32.44331735 25.44709015 28.46902847 C24.08181628 27.08998128 22.72075167 25.70677087 21.35980225 24.32345581 C16.96218262 19.87519212 12.52171515 15.57756857 7.73858643 11.54397583 C4.87734253 9.00300844 2.09886071 6.21189291 0 3 C0 2.01 0 1.02 0 0 Z " fill="#F7832F" transform="translate(363,349)"/>
<path d="M0 0 C-1.48921884 3.59827472 -3.49782147 5.54613518 -6.4375 8.0625 C-12.22349068 13.13572371 -17.59849841 18.52382327 -23 24 C-23.77770752 24.77698242 -24.55541504 25.55396484 -25.35668945 26.35449219 C-27.86103171 28.86091619 -30.35019459 31.38139662 -32.8359375 33.90625 C-34.68214804 35.77097555 -36.52850658 37.63555456 -38.375 39.5 C-39.75558594 40.90572266 -39.75558594 40.90572266 -41.1640625 42.33984375 C-54.21604532 55.48505502 -54.21604532 55.48505502 -64 56 C-61.78918128 53.78918128 -59.67053666 53.02435864 -56.8125 51.86328125 C-54.22787626 50.63224279 -52.19428185 48.81811925 -50 47 C-49.34 47 -48.68 47 -48 47 C-47.67 46.01 -47.34 45.02 -47 44 C-45.46188354 42.48435974 -45.46188354 42.48435974 -43.48779297 40.86108398 C-38.80314401 36.88365624 -34.50610826 32.59816438 -30.1953125 28.22265625 C-28.54439971 26.55911688 -26.8933543 24.89570912 -25.2421875 23.23242188 C-22.66607372 20.63133808 -20.09159838 18.02866959 -17.51953125 15.42358398 C-15.01992967 12.89396639 -12.51429813 10.37045016 -10.0078125 7.84765625 C-8.84694626 6.66660057 -8.84694626 6.66660057 -7.66262817 5.46168518 C-6.94783295 4.7435112 -6.23303772 4.02533722 -5.49658203 3.28540039 C-4.86785187 2.6492128 -4.2391217 2.01302521 -3.59133911 1.3575592 C-2 0 -2 0 0 0 Z " fill="#FA8329" transform="translate(584,344)"/>
<path d="M0 0 C0.66 0 1.32 0 2 0 C3.22024994 1.47714466 4.43753734 2.95851761 5.5859375 4.4921875 C6.92782216 6.10536005 6.92782216 6.10536005 8.88623047 6.90429688 C11.10407533 8.05394896 12.49201391 9.26185419 14.234375 11.0390625 C15.09482422 11.90917969 15.09482422 11.90917969 15.97265625 12.796875 C16.55917969 13.40015625 17.14570313 14.0034375 17.75 14.625 C18.35199219 15.23601563 18.95398438 15.84703125 19.57421875 16.4765625 C21.05405305 17.97988624 22.52764676 19.48934856 24 21 C22.15014648 21.63061523 22.15014648 21.63061523 20 22 C17.59765625 19.91015625 17.59765625 19.91015625 15 17 C14.09121094 16.09121094 13.18242187 15.18242188 12.24609375 14.24609375 C9.49739583 11.49739583 6.74869792 8.74869792 4 6 C3.22785156 5.26910156 2.45570313 4.53820312 1.66015625 3.78515625 C0 2 0 2 0 0 Z " fill="#65C64D" transform="translate(359,667)"/>
<path d="M0 0 C0.66 0 1.32 0 2 0 C3.48046875 1.50390625 3.48046875 1.50390625 5.1875 3.5625 C15.6455205 15.77781083 26.4602829 24.42543831 42 29 C42 29.33 42 29.66 42 30 C30.41282297 29.35626794 20.99706416 23.09900974 13 15 C11.89091881 13.91113252 10.7801595 12.82397238 9.66796875 11.73828125 C8.50775071 10.59641694 7.34759529 9.45448901 6.1875 8.3125 C5.59001953 7.73177734 4.99253906 7.15105469 4.37695312 6.55273438 C2.87985327 5.07274424 1.43511269 3.54017218 0 2 C0 1.34 0 0.68 0 0 Z " fill="#57B33E" transform="translate(459,768)"/>
<path d="M0 0 C0.33 0 0.66 0 1 0 C0.98952637 0.82089111 0.97905273 1.64178223 0.96826172 2.48754883 C0.93380173 5.58698453 0.9089197 8.6863213 0.89013672 11.78588867 C0.87535083 13.76552896 0.84991408 15.74508063 0.82421875 17.72460938 C0.78929798 24.62146144 1.08914154 31.00888508 2.66455078 37.73706055 C3.02228702 40.15034819 2.75489257 41.70064874 2 44 C-2.88420344 30.24137334 -3.27730519 16.42293286 -1 2 C-0.67 1.34 -0.34 0.68 0 0 Z " fill="#4677EA" transform="translate(175,440)"/>
<path d="M0 0 C3.39859703 1.46966358 5.64963709 3.38037514 8.25 6 C8.95640625 6.70125 9.6628125 7.4025 10.390625 8.125 C12 10 12 10 12 12 C12.57234375 12.2578125 13.1446875 12.515625 13.734375 12.78125 C16.21128995 14.11365942 18.1341166 15.65056118 20.25 17.5 C21.30960937 18.41265625 21.30960937 18.41265625 22.390625 19.34375 C24 21 24 21 24 23 C20.75728494 22.4409112 19.06942576 21.5867822 17 19 C17 18.34 17 17.68 17 17 C16.40670898 16.73123047 15.81341797 16.46246094 15.20214844 16.18554688 C12.99459967 14.99709268 11.53457118 13.79257611 9.765625 12.03125 C8.90517578 11.17466797 8.90517578 11.17466797 8.02734375 10.30078125 C7.44082031 9.70652344 6.85429687 9.11226563 6.25 8.5 C5.64800781 7.90574219 5.04601562 7.31148438 4.42578125 6.69921875 C3.85730469 6.12816406 3.28882813 5.55710937 2.703125 4.96875 C2.18395508 4.44732422 1.66478516 3.92589844 1.12988281 3.38867188 C0 2 0 2 0 0 Z " fill="#F88736" transform="translate(424,411)"/>
<path d="M0 0 C0.66 0.33 1.32 0.66 2 1 C1.1875 3.4375 1.1875 3.4375 0 6 C-0.99 6.33 -1.98 6.66 -3 7 C-3.6837045 8.32467746 -4.34964186 9.65863633 -5 11 C-8 13 -8 13 -11 13 C-11 12.34 -11 11.68 -11 11 C-9.35546875 9.4140625 -9.35546875 9.4140625 -7.1875 7.625 C-4.35520187 5.2828081 -2.10737561 3.01813415 0 0 Z " fill="#66CC4E" transform="translate(568,679)"/>
<path d="M0 0 C3.18265812 2.97732534 4.84579537 4.8518936 5.16796875 9.33984375 C5.17441406 10.19707031 5.18085937 11.05429687 5.1875 11.9375 C5.20167969 12.79214844 5.21585938 13.64679687 5.23046875 14.52734375 C4.98703556 17.13909303 4.3178268 18.75500652 3 21 C1.56911472 18.13822943 2.40008303 16.06624227 3 13 C2.67 13 2.34 13 2 13 C1.93941406 12.31292969 1.87882813 11.62585938 1.81640625 10.91796875 C1.73261719 10.01691406 1.64882813 9.11585938 1.5625 8.1875 C1.48128906 7.29417969 1.40007813 6.40085937 1.31640625 5.48046875 C1.06510233 2.87256441 1.06510233 2.87256441 0 0 Z " fill="#74DF59" transform="translate(670,635)"/>
<path d="M0 0 C0.66 0.33 1.32 0.66 2 1 C1.29875 1.350625 0.5975 1.70125 -0.125 2.0625 C-3.30850799 4.20790756 -5.19419339 6.52574905 -7.47265625 9.57421875 C-9 11 -9 11 -13 11 C-13 10.34 -13 9.68 -13 9 C-11.2614204 7.57831868 -9.45776019 6.23550882 -7.625 4.9375 C-6.62726562 4.22464844 -5.62953125 3.51179687 -4.6015625 2.77734375 C-2 1 -2 1 0 0 Z " fill="#EE3F91" transform="translate(772,251)"/>
<path d="M0 0 C0.66 0 1.32 0 2 0 C0.42026316 3.8288537 -2.02060457 6.28773759 -4.9375 9.1875 C-6.25041016 10.50814453 -6.25041016 10.50814453 -7.58984375 11.85546875 C-10 14 -10 14 -13 15 C-13 14.34 -13 13.68 -13 13 C-12.34 13 -11.68 13 -11 13 C-10.79375 12.443125 -10.5875 11.88625 -10.375 11.3125 C-8.48870368 8.14009255 -5.84515195 6.32257302 -3 4 C-1.99426222 2.67098936 -0.99204592 1.33926199 0 0 Z " fill="#FA8435" transform="translate(562,448)"/>
<path d="M0 0 C0.33 1.32 0.66 2.64 1 4 C-0.07421875 5.73828125 -0.07421875 5.73828125 -1.6875 7.3125 C-2.46673828 8.11107422 -2.46673828 8.11107422 -3.26171875 8.92578125 C-4.12216797 9.45751953 -4.12216797 9.45751953 -5 10 C-6.32 9.67 -7.64 9.34 -9 9 C-6.03 6.03 -3.06 3.06 0 0 Z " fill="#F2439A" transform="translate(815,526)"/>
<path d="M0 0 C0.33 0 0.66 0 1 0 C1.99 6.27 2.98 12.54 4 19 C2 18 2 18 1.1484375 15.9609375 C-0.39530186 10.79954631 -1.45887796 6.391816 -1 1 C-0.67 0.67 -0.34 0.34 0 0 Z " fill="#F38334" transform="translate(358,329)"/>
<path d="M0 0 C0.33 0.66 0.66 1.32 1 2 C-0.89732848 6.11087838 -3.0054207 7.94872955 -7 10 C-5.6062718 5.56541027 -3.39417765 3.12621626 0 0 Z " fill="#F04094" transform="translate(701,553)"/>
<path d="M0 0 C0 3.58912412 -0.66436554 4.10857029 -3 6.6875 C-3.556875 7.31011719 -4.11375 7.93273437 -4.6875 8.57421875 C-5.120625 9.04472656 -5.55375 9.51523437 -6 10 C-6.66 9.67 -7.32 9.34 -8 9 C-7.25 6.0625 -7.25 6.0625 -6 3 C-4 2.25 -4 2.25 -2 2 C-1.34 1.34 -0.68 0.68 0 0 Z " fill="#EB3B8C" transform="translate(832,510)"/>
<path d="M0 0 C0.66 0.33 1.32 0.66 2 1 C1.3125 3.4375 1.3125 3.4375 0 6 C-2.625 6.8125 -2.625 6.8125 -5 7 C-3.35 4.69 -1.7 2.38 0 0 Z " fill="#61C548" transform="translate(568,679)"/>
<path d="M0 0 C4.67105792 1.55701931 8.08705685 4.08447373 12 7 C8.89018657 7 7.60603631 6.53286291 4.875 5.1875 C3.81925781 4.68283203 3.81925781 4.68283203 2.7421875 4.16796875 C1 3 1 3 0 0 Z " fill="#EB3786" transform="translate(801,373)"/>
<path d="M0 0 C0.66 0 1.32 0 2 0 C0.50902342 3.7952131 -1.75700849 5.61042731 -5 8 C-5.33 7.34 -5.66 6.68 -6 6 C-5.34 6 -4.68 6 -4 6 C-3.71125 5.38125 -3.4225 4.7625 -3.125 4.125 C-2 2 -2 2 0 0 Z " fill="#FC872F" transform="translate(590,336)"/>
<path d="M0 0 C1 3 1 3 0.22265625 5.04296875 C-0.16019531 5.75066406 -0.54304688 6.45835937 -0.9375 7.1875 C-1.31777344 7.90292969 -1.69804687 8.61835937 -2.08984375 9.35546875 C-2.54037109 10.16951172 -2.54037109 10.16951172 -3 11 C-4.60031344 7.79937313 -3.03173691 5.27728194 -2 2 C-1.34 2 -0.68 2 0 2 C0 1.34 0 0.68 0 0 Z " fill="#4980EB" transform="translate(335,602)"/>
<path d="M0 0 C1.43088528 2.86177057 0.59991697 4.93375773 0 8 C-0.66 8 -1.32 8 -2 8 C-2.33 8.66 -2.66 9.32 -3 10 C-2.25 3.375 -2.25 3.375 0 0 Z " fill="#477CF0" transform="translate(181,420)"/>
<path d="M0 0 C0 3 0 3 -1.3125 4.38671875 C-2.875 5.59114583 -4.4375 6.79557292 -6 8 C-6.33 7.34 -6.66 6.68 -7 6 C-4.69 4.02 -2.38 2.04 0 0 Z " fill="#5ABE40" transform="translate(550,698)"/>
<path d="M0 0 C0.99 0.33 1.98 0.66 3 1 C2.01 1 1.02 1 0 1 C0 0.67 0 0.34 0 0 Z " fill="#D96E98" transform="translate(554,565)"/>
<path d="M0 0 C3 1 3 1 3 1 Z " fill="#6ACA59" transform="translate(488,797)"/>
<path d="M0 0 C3 1 3 1 3 1 Z " fill="#6AC957" transform="translate(465,781)"/>
<path d="M0 0 C0.66 0 1.32 0 2 0 C1.67 0.66 1.34 1.32 1 2 C0.67 1.34 0.34 0.68 0 0 Z " fill="#F25C95" transform="translate(592,480)"/>
<path d="M0 0 C3 1 3 1 3 1 Z " fill="#F69050" transform="translate(541,471)"/>
<path d="" fill="#F84CA4" transform="translate(0,0)"/>
<path d="" fill="#F75993" transform="translate(0,0)"/>
<path d="" fill="#F85A93" transform="translate(0,0)"/>
<path d="M0 0 C0.66 0.66 1.32 1.32 2 2 C1.34 2 0.68 2 0 2 C0 1.34 0 0.68 0 0 Z " fill="#F1569F" transform="translate(733,360)"/>
<path d="M0 0 C2 1 2 1 2 1 Z " fill="#6BCA56" transform="translate(525,799)"/>
<path d="M0 0 C2 1 2 1 2 1 Z " fill="#6AD458" transform="translate(520,695)"/>
<path d="M0 0 C2 1 2 1 2 1 Z " fill="#6ED35C" transform="translate(517,692)"/>
<path d="" fill="#6EC766" transform="translate(0,0)"/>
<path d="" fill="#72D65D" transform="translate(0,0)"/>
<path d="" fill="#76CE60" transform="translate(0,0)"/>
<path d="M0 0 C2 1 2 1 2 1 Z " fill="#649AE4" transform="translate(428,567)"/>
<path d="" fill="#E36297" transform="translate(0,0)"/>
<path d="" fill="#DA6698" transform="translate(0,0)"/>
<path d="" fill="#5989EC" transform="translate(0,0)"/>
<path d="M0 0 C2 1 2 1 2 1 Z " fill="#5E8BEA" transform="translate(170,457)"/>
<path d="" fill="#548DFB" transform="translate(0,0)"/>
<path d="" fill="#E3519B" transform="translate(0,0)"/>
<path d="" fill="#ED915D" transform="translate(0,0)"/>
<path d="M0 0 C2 1 2 1 2 1 Z " fill="#5D91F6" transform="translate(227,368)"/>
<path d="M0 0 C2 1 2 1 2 1 Z " fill="#6A8DE9" transform="translate(302,364)"/>
<path d="M0 0 C2 1 2 1 2 1 Z " fill="#F2559D" transform="translate(726,363)"/>
<path d="M0 0 C2 1 2 1 2 1 Z " fill="#F256A1" transform="translate(736,360)"/>
<path d="M0 0 C2 1 2 1 2 1 Z " fill="#608DEC" transform="translate(286,360)"/>
<path d="M0 0 C2 1 2 1 2 1 Z " fill="#5F90F7" transform="translate(249,360)"/>
<path d="M0 0 C2 1 2 1 2 1 Z " fill="#FC9848" transform="translate(493,343)"/>
<path d="M0 0 C2 1 2 1 2 1 Z " fill="#5C91F8" transform="translate(220,343)"/>
<path d="M0 0 C2 1 2 1 2 1 Z " fill="#FF9A49" transform="translate(491,342)"/>
<path d="" fill="#5D8EF8" transform="translate(0,0)"/>
<path d="M0 0 C2 1 2 1 2 1 Z " fill="#F450A2" transform="translate(760,333)"/>
<path d="" fill="#F04F9E" transform="translate(0,0)"/>
<path d="" fill="#FB9446" transform="translate(0,0)"/>
<path d="" fill="#5C88E8" transform="translate(0,0)"/>
<path d="" fill="#5D88E7" transform="translate(0,0)"/>
<path d="" fill="#F59649" transform="translate(0,0)"/>
<path d="M0 0 C2 1 2 1 2 1 Z " fill="#5A87E7" transform="translate(193,256)"/>
<path d="" fill="#69C957" transform="translate(0,0)"/>
<path d="" fill="#69C855" transform="translate(0,0)"/>
<path d="" fill="#69CA5A" transform="translate(0,0)"/>
<path d="" fill="#6ACD59" transform="translate(0,0)"/>
<path d="" fill="#70C857" transform="translate(0,0)"/>
<path d="" fill="#68D05A" transform="translate(0,0)"/>
<path d="" fill="#68CA55" transform="translate(0,0)"/>
<path d="" fill="#6CCE58" transform="translate(0,0)"/>
<path d="" fill="#69CA56" transform="translate(0,0)"/>
<path d="" fill="#6ACD58" transform="translate(0,0)"/>
<path d="" fill="#6ACE5B" transform="translate(0,0)"/>
<path d="" fill="#6ACB59" transform="translate(0,0)"/>
<path d="" fill="#68CC58" transform="translate(0,0)"/>
<path d="" fill="#6CCC5A" transform="translate(0,0)"/>
<path d="" fill="#6ECA57" transform="translate(0,0)"/>
<path d="" fill="#6ECC59" transform="translate(0,0)"/>
<path d="" fill="#6BC757" transform="translate(0,0)"/>
<path d="" fill="#6ACB5A" transform="translate(0,0)"/>
<path d="" fill="#6BCC5A" transform="translate(0,0)"/>
<path d="" fill="#70CC5A" transform="translate(0,0)"/>
<path d="" fill="#6ED55A" transform="translate(0,0)"/>
<path d="" fill="#6ACB59" transform="translate(0,0)"/>
<path d="" fill="#69CD59" transform="translate(0,0)"/>
<path d="" fill="#6DD45A" transform="translate(0,0)"/>
<path d="" fill="#6ED55B" transform="translate(0,0)"/>
<path d="" fill="#6DD55D" transform="translate(0,0)"/>
<path d="" fill="#71CB5A" transform="translate(0,0)"/>
<path d="" fill="#68CD5C" transform="translate(0,0)"/>
<path d="" fill="#6DD256" transform="translate(0,0)"/>
<path d="" fill="#6FD55D" transform="translate(0,0)"/>
<path d="" fill="#6ED759" transform="translate(0,0)"/>
<path d="" fill="#6AD359" transform="translate(0,0)"/>
<path d="" fill="#6ED55A" transform="translate(0,0)"/>
<path d="" fill="#6BD559" transform="translate(0,0)"/>
<path d="" fill="#6ED358" transform="translate(0,0)"/>
<path d="" fill="#6ED65B" transform="translate(0,0)"/>
<path d="" fill="#73D05C" transform="translate(0,0)"/>
<path d="" fill="#6DD459" transform="translate(0,0)"/>
<path d="" fill="#6CCB5E" transform="translate(0,0)"/>
<path d="" fill="#6FD75A" transform="translate(0,0)"/>
<path d="" fill="#6ED45A" transform="translate(0,0)"/>
<path d="" fill="#6FD75D" transform="translate(0,0)"/>
<path d="" fill="#71CA59" transform="translate(0,0)"/>
<path d="" fill="#6FCA62" transform="translate(0,0)"/>
<path d="" fill="#6BD35A" transform="translate(0,0)"/>
<path d="" fill="#6CD257" transform="translate(0,0)"/>
<path d="" fill="#70D35C" transform="translate(0,0)"/>
<path d="" fill="#6DD259" transform="translate(0,0)"/>
<path d="" fill="#6DC764" transform="translate(0,0)"/>
<path d="" fill="#6CD357" transform="translate(0,0)"/>
<path d="" fill="#6FD35B" transform="translate(0,0)"/>
<path d="" fill="#6FCA62" transform="translate(0,0)"/>
<path d="" fill="#6EC763" transform="translate(0,0)"/>
<path d="" fill="#70D45B" transform="translate(0,0)"/>
<path d="" fill="#70D75B" transform="translate(0,0)"/>
<path d="" fill="#6ED260" transform="translate(0,0)"/>
<path d="" fill="#71D55B" transform="translate(0,0)"/>
<path d="" fill="#6ED15D" transform="translate(0,0)"/>
<path d="" fill="#6ED15C" transform="translate(0,0)"/>
<path d="" fill="#72D65D" transform="translate(0,0)"/>
<path d="" fill="#71C56C" transform="translate(0,0)"/>
<path d="" fill="#6ED15E" transform="translate(0,0)"/>
<path d="" fill="#6FCE5C" transform="translate(0,0)"/>
<path d="" fill="#6FD35C" transform="translate(0,0)"/>
<path d="" fill="#70C175" transform="translate(0,0)"/>
<path d="" fill="#86B869" transform="translate(0,0)"/>
<path d="" fill="#77D461" transform="translate(0,0)"/>
<path d="" fill="#74D15D" transform="translate(0,0)"/>
<path d="" fill="#73D060" transform="translate(0,0)"/>
<path d="" fill="#73D05D" transform="translate(0,0)"/>
<path d="" fill="#75CE5C" transform="translate(0,0)"/>
<path d="" fill="#75BC58" transform="translate(0,0)"/>
<path d="" fill="#75CC63" transform="translate(0,0)"/>
<path d="" fill="#74CB62" transform="translate(0,0)"/>
<path d="" fill="#74CF64" transform="translate(0,0)"/>
<path d="" fill="#6398DD" transform="translate(0,0)"/>
<path d="" fill="#72D162" transform="translate(0,0)"/>
<path d="" fill="#72C96A" transform="translate(0,0)"/>
<path d="" fill="#6092DE" transform="translate(0,0)"/>
<path d="" fill="#86BC69" transform="translate(0,0)"/>
<path d="" fill="#74CF64" transform="translate(0,0)"/>
<path d="" fill="#7DCA6B" transform="translate(0,0)"/>
<path d="" fill="#70C17B" transform="translate(0,0)"/>
<path d="" fill="#78CF62" transform="translate(0,0)"/>
<path d="" fill="#629FE2" transform="translate(0,0)"/>
<path d="" fill="#CE758E" transform="translate(0,0)"/>
<path d="" fill="#5C90EE" transform="translate(0,0)"/>
<path d="" fill="#D1758F" transform="translate(0,0)"/>
<path d="" fill="#568EF4" transform="translate(0,0)"/>
<path d="" fill="#72C86E" transform="translate(0,0)"/>
<path d="" fill="#5E90EE" transform="translate(0,0)"/>
<path d="" fill="#5D90F2" transform="translate(0,0)"/>
<path d="" fill="#73C16E" transform="translate(0,0)"/>
<path d="" fill="#D77093" transform="translate(0,0)"/>
<path d="" fill="#7FC56F" transform="translate(0,0)"/>
<path d="" fill="#7DC571" transform="translate(0,0)"/>
<path d="" fill="#7DC26D" transform="translate(0,0)"/>
<path d="" fill="#7DC670" transform="translate(0,0)"/>
<path d="" fill="#81BE6E" transform="translate(0,0)"/>
<path d="" fill="#5C8EF2" transform="translate(0,0)"/>
<path d="" fill="#DF6A97" transform="translate(0,0)"/>
<path d="" fill="#5F93EC" transform="translate(0,0)"/>
<path d="" fill="#5C8DF3" transform="translate(0,0)"/>
<path d="" fill="#DC6499" transform="translate(0,0)"/>
<path d="" fill="#6499E0" transform="translate(0,0)"/>
<path d="" fill="#619BE2" transform="translate(0,0)"/>
<path d="" fill="#E2639B" transform="translate(0,0)"/>
<path d="" fill="#EA509B" transform="translate(0,0)"/>
<path d="" fill="#6699E5" transform="translate(0,0)"/>
<path d="" fill="#6297E6" transform="translate(0,0)"/>
<path d="" fill="#ED5EA0" transform="translate(0,0)"/>
<path d="" fill="#5E91F5" transform="translate(0,0)"/>
<path d="" fill="#C87398" transform="translate(0,0)"/>
<path d="" fill="#C6769B" transform="translate(0,0)"/>
<path d="" fill="#5D8CF1" transform="translate(0,0)"/>
<path d="" fill="#568FF7" transform="translate(0,0)"/>
<path d="" fill="#598EF5" transform="translate(0,0)"/>
<path d="" fill="#E55D98" transform="translate(0,0)"/>
<path d="" fill="#7A95D1" transform="translate(0,0)"/>
<path d="" fill="#5990F6" transform="translate(0,0)"/>
<path d="" fill="#5B92F1" transform="translate(0,0)"/>
<path d="" fill="#6495EF" transform="translate(0,0)"/>
<path d="" fill="#5E8EF4" transform="translate(0,0)"/>
<path d="" fill="#EF54A5" transform="translate(0,0)"/>
<path d="" fill="#5C8BF0" transform="translate(0,0)"/>
<path d="" fill="#EB579E" transform="translate(0,0)"/>
<path d="" fill="#7791D8" transform="translate(0,0)"/>
<path d="" fill="#F152A5" transform="translate(0,0)"/>
<path d="" fill="#EF50A3" transform="translate(0,0)"/>
<path d="" fill="#F352A8" transform="translate(0,0)"/>
<path d="" fill="#E8609B" transform="translate(0,0)"/>
<path d="" fill="#5E8CEF" transform="translate(0,0)"/>
<path d="" fill="#7990DA" transform="translate(0,0)"/>
<path d="" fill="#5E92F3" transform="translate(0,0)"/>
<path d="" fill="#558AFA" transform="translate(0,0)"/>
<path d="" fill="#7A91DC" transform="translate(0,0)"/>
<path d="" fill="#5C89ED" transform="translate(0,0)"/>
<path d="" fill="#EE539C" transform="translate(0,0)"/>
<path d="" fill="#5888F1" transform="translate(0,0)"/>
<path d="" fill="#ED5F9C" transform="translate(0,0)"/>
<path d="" fill="#5C8EF5" transform="translate(0,0)"/>
<path d="" fill="#F053A0" transform="translate(0,0)"/>
<path d="" fill="#7D93D9" transform="translate(0,0)"/>
<path d="" fill="#588DFD" transform="translate(0,0)"/>
<path d="" fill="#5B8BEE" transform="translate(0,0)"/>
<path d="" fill="#898FCD" transform="translate(0,0)"/>
<path d="" fill="#5A85ED" transform="translate(0,0)"/>
<path d="" fill="#F0609B" transform="translate(0,0)"/>
<path d="" fill="#EE5C94" transform="translate(0,0)"/>
<path d="" fill="#F15A97" transform="translate(0,0)"/>
<path d="" fill="#5C8EFA" transform="translate(0,0)"/>
<path d="" fill="#5A8DF8" transform="translate(0,0)"/>
<path d="" fill="#F45C99" transform="translate(0,0)"/>
<path d="" fill="#5A8EF9" transform="translate(0,0)"/>
<path d="" fill="#F05897" transform="translate(0,0)"/>
<path d="" fill="#F05C93" transform="translate(0,0)"/>
<path d="" fill="#568EFB" transform="translate(0,0)"/>
<path d="" fill="#5E88EC" transform="translate(0,0)"/>
<path d="" fill="#7D91DB" transform="translate(0,0)"/>
<path d="" fill="#5D89ED" transform="translate(0,0)"/>
<path d="" fill="#F55E9C" transform="translate(0,0)"/>
<path d="" fill="#5B8EFA" transform="translate(0,0)"/>
<path d="" fill="#5D84EB" transform="translate(0,0)"/>
<path d="" fill="#898ED0" transform="translate(0,0)"/>
<path d="" fill="#8B8FC9" transform="translate(0,0)"/>
<path d="" fill="#E04E94" transform="translate(0,0)"/>
<path d="" fill="#558EF7" transform="translate(0,0)"/>
<path d="" fill="#F450A7" transform="translate(0,0)"/>
<path d="" fill="#F65A95" transform="translate(0,0)"/>
<path d="" fill="#F69758" transform="translate(0,0)"/>
<path d="" fill="#548EF6" transform="translate(0,0)"/>
<path d="" fill="#F69258" transform="translate(0,0)"/>
<path d="" fill="#588EFA" transform="translate(0,0)"/>
<path d="" fill="#EC935D" transform="translate(0,0)"/>
<path d="" fill="#F24F9C" transform="translate(0,0)"/>
<path d="" fill="#F59258" transform="translate(0,0)"/>
<path d="" fill="#F79058" transform="translate(0,0)"/>
<path d="" fill="#618AE9" transform="translate(0,0)"/>
<path d="" fill="#E9925A" transform="translate(0,0)"/>
<path d="" fill="#EC925C" transform="translate(0,0)"/>
<path d="" fill="#F44EA1" transform="translate(0,0)"/>
<path d="" fill="#F34E9E" transform="translate(0,0)"/>
<path d="" fill="#898FD1" transform="translate(0,0)"/>
<path d="" fill="#5A92FC" transform="translate(0,0)"/>
<path d="" fill="#5E8DEB" transform="translate(0,0)"/>
<path d="" fill="#F65B96" transform="translate(0,0)"/>
<path d="" fill="#F78C59" transform="translate(0,0)"/>
<path d="" fill="#F88C59" transform="translate(0,0)"/>
<path d="" fill="#FA8C55" transform="translate(0,0)"/>
<path d="" fill="#F68E4D" transform="translate(0,0)"/>
<path d="" fill="#5A8EFD" transform="translate(0,0)"/>
<path d="" fill="#6087E7" transform="translate(0,0)"/>
<path d="" fill="#F65C95" transform="translate(0,0)"/>
<path d="" fill="#EC4F9A" transform="translate(0,0)"/>
<path d="" fill="#FA904E" transform="translate(0,0)"/>
<path d="" fill="#7F8ED9" transform="translate(0,0)"/>
<path d="" fill="#F54BA6" transform="translate(0,0)"/>
<path d="" fill="#568AFC" transform="translate(0,0)"/>
<path d="" fill="#588CFF" transform="translate(0,0)"/>
<path d="" fill="#F98D53" transform="translate(0,0)"/>
<path d="" fill="#598CFE" transform="translate(0,0)"/>
<path d="" fill="#578EFC" transform="translate(0,0)"/>
<path d="" fill="#F74BA4" transform="translate(0,0)"/>
<path d="" fill="#EF4A9B" transform="translate(0,0)"/>
<path d="" fill="#ED945A" transform="translate(0,0)"/>
<path d="" fill="#F34EA3" transform="translate(0,0)"/>
<path d="" fill="#598DFB" transform="translate(0,0)"/>
<path d="" fill="#F95793" transform="translate(0,0)"/>
<path d="" fill="#618CEB" transform="translate(0,0)"/>
<path d="" fill="#F7904C" transform="translate(0,0)"/>
<path d="" fill="#5B8FFB" transform="translate(0,0)"/>
<path d="" fill="#5A91F8" transform="translate(0,0)"/>
<path d="" fill="#F54EA5" transform="translate(0,0)"/>
<path d="" fill="#F74DA3" transform="translate(0,0)"/>
<path d="" fill="#F84CA6" transform="translate(0,0)"/>
<path d="" fill="#E4569C" transform="translate(0,0)"/>
<path d="" fill="#FC8959" transform="translate(0,0)"/>
<path d="" fill="#588DFE" transform="translate(0,0)"/>
<path d="" fill="#FA904C" transform="translate(0,0)"/>
<path d="" fill="#F19459" transform="translate(0,0)"/>
<path d="" fill="#F65B91" transform="translate(0,0)"/>
<path d="" fill="#5A8FEC" transform="translate(0,0)"/>
<path d="" fill="#FB8C49" transform="translate(0,0)"/>
<path d="" fill="#F09656" transform="translate(0,0)"/>
<path d="" fill="#828CD7" transform="translate(0,0)"/>
<path d="" fill="#EE915D" transform="translate(0,0)"/>
<path d="" fill="#FD8C48" transform="translate(0,0)"/>
<path d="" fill="#F59358" transform="translate(0,0)"/>
<path d="" fill="#F29357" transform="translate(0,0)"/>
<path d="" fill="#EB9266" transform="translate(0,0)"/>
<path d="" fill="#EE925E" transform="translate(0,0)"/>
<path d="" fill="#F75894" transform="translate(0,0)"/>
<path d="" fill="#FC9048" transform="translate(0,0)"/>
<path d="" fill="#5E89EB" transform="translate(0,0)"/>
<path d="" fill="#F25A94" transform="translate(0,0)"/>
<path d="" fill="#E75599" transform="translate(0,0)"/>
<path d="" fill="#F95A95" transform="translate(0,0)"/>
<path d="" fill="#F98E4A" transform="translate(0,0)"/>
<path d="" fill="#FF9745" transform="translate(0,0)"/>
<path d="" fill="#FF9847" transform="translate(0,0)"/>
<path d="" fill="#F55B93" transform="translate(0,0)"/>
<path d="" fill="#FB8E48" transform="translate(0,0)"/>
<path d="" fill="#F45D97" transform="translate(0,0)"/>
<path d="" fill="#FB9448" transform="translate(0,0)"/>
<path d="" fill="#EF9155" transform="translate(0,0)"/>
<path d="" fill="#7B8EDD" transform="translate(0,0)"/>
<path d="" fill="#7392E3" transform="translate(0,0)"/>
<path d="" fill="#5D90F3" transform="translate(0,0)"/>
<path d="" fill="#FC9247" transform="translate(0,0)"/>
<path d="" fill="#EC9357" transform="translate(0,0)"/>
<path d="" fill="#738CE0" transform="translate(0,0)"/>
<path d="" fill="#5B8FF5" transform="translate(0,0)"/>
<path d="" fill="#FE9947" transform="translate(0,0)"/>
<path d="" fill="#F153A1" transform="translate(0,0)"/>
<path d="" fill="#728EE7" transform="translate(0,0)"/>
<path d="" fill="#EE4FA1" transform="translate(0,0)"/>
<path d="" fill="#F2589C" transform="translate(0,0)"/>
<path d="" fill="#F25A97" transform="translate(0,0)"/>
<path d="" fill="#6D8EE1" transform="translate(0,0)"/>
<path d="" fill="#FB9149" transform="translate(0,0)"/>
<path d="" fill="#F09456" transform="translate(0,0)"/>
<path d="" fill="#F1559B" transform="translate(0,0)"/>
<path d="" fill="#F350A5" transform="translate(0,0)"/>
<path d="" fill="#FD9745" transform="translate(0,0)"/>
<path d="" fill="#678DEB" transform="translate(0,0)"/>
<path d="" fill="#5F8FFA" transform="translate(0,0)"/>
<path d="" fill="#5F8FF4" transform="translate(0,0)"/>
<path d="" fill="#648DEE" transform="translate(0,0)"/>
<path d="" fill="#698EEC" transform="translate(0,0)"/>
<path d="" fill="#F99048" transform="translate(0,0)"/>
<path d="" fill="#658FF2" transform="translate(0,0)"/>
<path d="" fill="#FC9746" transform="translate(0,0)"/>
<path d="" fill="#FC9848" transform="translate(0,0)"/>
<path d="" fill="#FD974A" transform="translate(0,0)"/>
<path d="" fill="#FE9949" transform="translate(0,0)"/>
<path d="" fill="#FD9847" transform="translate(0,0)"/>
<path d="" fill="#F452A5" transform="translate(0,0)"/>
<path d="" fill="#5C92F7" transform="translate(0,0)"/>
<path d="" fill="#578CF7" transform="translate(0,0)"/>
<path d="" fill="#F14FA5" transform="translate(0,0)"/>
<path d="" fill="#578BF6" transform="translate(0,0)"/>
<path d="" fill="#FF9746" transform="translate(0,0)"/>
<path d="" fill="#FE9648" transform="translate(0,0)"/>
<path d="" fill="#FE9747" transform="translate(0,0)"/>
<path d="" fill="#5B8CF4" transform="translate(0,0)"/>
<path d="" fill="#F34FA3" transform="translate(0,0)"/>
<path d="" fill="#DB9168" transform="translate(0,0)"/>
<path d="" fill="#F253A0" transform="translate(0,0)"/>
<path d="" fill="#F453A2" transform="translate(0,0)"/>
<path d="" fill="#FE9249" transform="translate(0,0)"/>
<path d="" fill="#5E8EF5" transform="translate(0,0)"/>
<path d="" fill="#5F8BF1" transform="translate(0,0)"/>
<path d="" fill="#F050A1" transform="translate(0,0)"/>
<path d="" fill="#FF9748" transform="translate(0,0)"/>
<path d="" fill="#FF9645" transform="translate(0,0)"/>
<path d="" fill="#5A8BF3" transform="translate(0,0)"/>
<path d="" fill="#5C8CF3" transform="translate(0,0)"/>
<path d="" fill="#5D89F2" transform="translate(0,0)"/>
<path d="" fill="#5F8EF6" transform="translate(0,0)"/>
<path d="" fill="#5C8EF0" transform="translate(0,0)"/>
<path d="" fill="#FA9144" transform="translate(0,0)"/>
<path d="" fill="#E5519A" transform="translate(0,0)"/>
<path d="" fill="#FE9844" transform="translate(0,0)"/>
<path d="" fill="#FB9748" transform="translate(0,0)"/>
<path d="" fill="#5C89EB" transform="translate(0,0)"/>
<path d="" fill="#5889EE" transform="translate(0,0)"/>
<path d="" fill="#D38E6E" transform="translate(0,0)"/>
<path d="" fill="#5B89ED" transform="translate(0,0)"/>
<path d="" fill="#F152A1" transform="translate(0,0)"/>
<path d="" fill="#FB994A" transform="translate(0,0)"/>
<path d="" fill="#5A89F0" transform="translate(0,0)"/>
<path d="" fill="#DD8D62" transform="translate(0,0)"/>
<path d="" fill="#DE905B" transform="translate(0,0)"/>
<path d="" fill="#F99647" transform="translate(0,0)"/>
<path d="" fill="#DF5699" transform="translate(0,0)"/>
<path d="" fill="#D89166" transform="translate(0,0)"/>
<path d="" fill="#FC9B49" transform="translate(0,0)"/>
<path d="" fill="#5787EF" transform="translate(0,0)"/>
<path d="" fill="#EE539D" transform="translate(0,0)"/>
<path d="" fill="#F4934C" transform="translate(0,0)"/>
<path d="" fill="#F4944B" transform="translate(0,0)"/>
<path d="" fill="#648EEA" transform="translate(0,0)"/>
<path d="" fill="#F1914B" transform="translate(0,0)"/>
<path d="" fill="#F39851" transform="translate(0,0)"/>
<path d="" fill="#5B8AEB" transform="translate(0,0)"/>
<path d="" fill="#658DE9" transform="translate(0,0)"/>
<path d="" fill="#5C8BEA" transform="translate(0,0)"/>
<path d="" fill="#628DF0" transform="translate(0,0)"/>
<path d="" fill="#5D89EC" transform="translate(0,0)"/>
<path d="" fill="#DD5098" transform="translate(0,0)"/>
<path d="" fill="#6A8AE4" transform="translate(0,0)"/>
<path d="" fill="#DF5196" transform="translate(0,0)"/>
<path d="" fill="#E85797" transform="translate(0,0)"/>
<path d="" fill="#DB5195" transform="translate(0,0)"/>
<path d="" fill="#E65699" transform="translate(0,0)"/>
<path d="" fill="#E45597" transform="translate(0,0)"/>
<path d="" fill="#F49648" transform="translate(0,0)"/>
<path d="" fill="#6188E7" transform="translate(0,0)"/>
<path d="" fill="#F6984E" transform="translate(0,0)"/>
<path d="" fill="#F69147" transform="translate(0,0)"/>
<path d="" fill="#E25696" transform="translate(0,0)"/>
<path d="" fill="#F49549" transform="translate(0,0)"/>
<path d="" fill="#EF934B" transform="translate(0,0)"/>
<path d="" fill="#F4954A" transform="translate(0,0)"/>
<path d="" fill="#F4974C" transform="translate(0,0)"/>
<path d="" fill="#E05198" transform="translate(0,0)"/>
<path d="" fill="#5888E7" transform="translate(0,0)"/>
<path d="" fill="#DC519A" transform="translate(0,0)"/>
<path d="" fill="#E15499" transform="translate(0,0)"/>
<path d="" fill="#5E89E9" transform="translate(0,0)"/>
<path d="" fill="#F1954A" transform="translate(0,0)"/>
<path d="" fill="#F59448" transform="translate(0,0)"/>
<path d="" fill="#EE9248" transform="translate(0,0)"/>
<path d="" fill="#F0934B" transform="translate(0,0)"/>
<path d="" fill="#5885E8" transform="translate(0,0)"/>
<path d="" fill="#5C88EA" transform="translate(0,0)"/>
<path d="" fill="#DD5295" transform="translate(0,0)"/>
<path d="" fill="#E15399" transform="translate(0,0)"/>
<path d="" fill="#E15498" transform="translate(0,0)"/>
<path d="" fill="#DE5598" transform="translate(0,0)"/>
<path d="" fill="#5E87E6" transform="translate(0,0)"/>
</svg>
