<svg xmlns="http://www.w3.org/2000/svg" width="1024" height="1024" viewBox="0 0 1024 1024">
  <path d="M 372 622 L 371 623 L 368 623 L 367 624 L 365 624 L 364 625 L 363 625 L 361 627 L 360 627 L 358 629 L 357 629 L 352 634 L 352 635 L 350 637 L 350 638 L 349 639 L 349 641 L 348 642 L 348 651 L 349 652 L 349 654 L 350 655 L 350 656 L 351 657 L 351 658 L 353 660 L 353 661 L 386 694 L 386 695 L 387 695 L 400 708 L 400 709 L 402 711 L 403 711 L 408 716 L 408 717 L 411 720 L 412 720 L 414 722 L 414 723 L 419 728 L 420 728 L 422 730 L 422 731 L 479 788 L 480 788 L 482 790 L 483 790 L 485 792 L 486 792 L 487 793 L 488 793 L 489 794 L 490 794 L 491 795 L 493 795 L 494 796 L 496 796 L 497 797 L 500 797 L 501 798 L 507 798 L 508 799 L 513 799 L 514 798 L 522 798 L 523 797 L 525 797 L 526 796 L 528 796 L 529 795 L 530 795 L 531 794 L 533 794 L 534 793 L 535 793 L 536 792 L 537 792 L 539 790 L 540 790 L 542 788 L 543 788 L 670 661 L 670 660 L 672 658 L 672 657 L 673 656 L 673 655 L 674 654 L 674 653 L 675 652 L 675 648 L 676 647 L 676 645 L 675 644 L 675 641 L 674 640 L 674 639 L 673 638 L 673 637 L 672 636 L 672 635 L 665 628 L 664 628 L 662 626 L 661 626 L 660 625 L 659 625 L 658 624 L 656 624 L 655 623 L 652 623 L 651 622 L 635 622 L 634 623 L 631 623 L 630 624 L 628 624 L 627 625 L 626 625 L 625 626 L 624 626 L 623 627 L 622 627 L 620 629 L 619 629 L 536 712 L 535 712 L 531 716 L 530 716 L 529 717 L 528 717 L 527 718 L 526 718 L 525 719 L 523 719 L 522 720 L 518 720 L 517 721 L 508 721 L 507 720 L 502 720 L 501 719 L 499 719 L 498 718 L 497 718 L 496 717 L 495 717 L 494 716 L 493 716 L 489 712 L 488 712 L 472 696 L 472 695 L 471 695 L 464 688 L 464 687 L 463 687 L 407 631 L 406 631 L 403 628 L 402 628 L 400 626 L 399 626 L 398 625 L 397 625 L 396 624 L 394 624 L 393 623 L 390 623 L 389 622 Z M 504 596 L 503 597 L 500 597 L 499 598 L 497 598 L 496 599 L 494 599 L 493 600 L 492 600 L 491 601 L 490 601 L 489 602 L 488 602 L 487 603 L 486 603 L 483 606 L 482 606 L 475 613 L 475 614 L 472 617 L 472 618 L 471 619 L 471 620 L 470 621 L 470 622 L 469 623 L 469 624 L 468 625 L 468 627 L 467 628 L 467 630 L 466 631 L 466 636 L 465 637 L 465 648 L 466 649 L 466 654 L 467 655 L 467 658 L 468 659 L 468 660 L 469 661 L 469 663 L 470 664 L 470 665 L 472 667 L 472 668 L 473 669 L 473 670 L 477 674 L 477 675 L 481 679 L 482 679 L 485 682 L 486 682 L 488 684 L 489 684 L 490 685 L 491 685 L 492 686 L 493 686 L 494 687 L 495 687 L 496 688 L 499 688 L 500 689 L 503 689 L 504 690 L 518 690 L 519 689 L 523 689 L 524 688 L 527 688 L 528 687 L 529 687 L 530 686 L 532 686 L 534 684 L 535 684 L 536 683 L 537 683 L 539 681 L 540 681 L 550 671 L 550 670 L 552 668 L 552 667 L 554 665 L 554 664 L 555 663 L 555 662 L 556 661 L 556 659 L 557 658 L 557 655 L 558 654 L 558 652 L 559 651 L 559 635 L 558 634 L 558 631 L 557 630 L 557 628 L 556 627 L 556 625 L 555 624 L 555 623 L 554 622 L 554 621 L 552 619 L 552 618 L 551 617 L 551 616 L 540 605 L 539 605 L 537 603 L 536 603 L 535 602 L 534 602 L 533 601 L 532 601 L 531 600 L 530 600 L 529 599 L 527 599 L 526 598 L 524 598 L 523 597 L 519 597 L 518 596 Z M 753 360 L 752 361 L 743 361 L 742 362 L 738 362 L 737 363 L 733 363 L 732 364 L 730 364 L 729 365 L 727 365 L 726 366 L 724 366 L 723 367 L 721 367 L 720 368 L 719 368 L 718 369 L 717 369 L 716 370 L 715 370 L 714 371 L 713 371 L 712 372 L 711 372 L 709 374 L 708 374 L 706 376 L 705 376 L 703 378 L 702 378 L 660 420 L 659 420 L 658 421 L 658 422 L 657 423 L 656 423 L 656 424 L 652 428 L 651 428 L 650 429 L 650 430 L 649 431 L 648 431 L 637 442 L 637 443 L 635 445 L 634 445 L 634 446 L 632 448 L 631 448 L 631 449 L 627 453 L 626 453 L 626 454 L 625 455 L 624 455 L 624 456 L 617 463 L 616 463 L 616 464 L 541 539 L 541 540 L 538 543 L 538 545 L 537 546 L 537 551 L 538 552 L 538 553 L 539 554 L 539 555 L 540 556 L 541 556 L 544 559 L 545 559 L 546 560 L 548 560 L 549 561 L 550 561 L 551 562 L 552 562 L 553 563 L 555 563 L 556 564 L 559 564 L 560 565 L 562 565 L 563 566 L 567 566 L 568 567 L 588 567 L 589 566 L 592 566 L 593 565 L 596 565 L 597 564 L 599 564 L 600 563 L 601 563 L 602 562 L 603 562 L 604 561 L 605 561 L 606 560 L 607 560 L 608 559 L 609 559 L 610 558 L 611 558 L 613 556 L 614 556 L 619 551 L 620 551 L 716 455 L 717 455 L 735 437 L 736 437 L 738 435 L 739 435 L 740 434 L 742 434 L 743 433 L 746 433 L 747 432 L 757 432 L 758 433 L 761 433 L 762 434 L 763 434 L 764 435 L 766 435 L 768 437 L 769 437 L 771 439 L 772 439 L 777 444 L 777 445 L 779 447 L 779 448 L 780 449 L 780 450 L 781 451 L 781 453 L 782 454 L 782 465 L 781 466 L 781 469 L 780 470 L 780 471 L 779 472 L 779 473 L 778 474 L 778 475 L 775 478 L 775 479 L 761 493 L 760 493 L 760 494 L 753 501 L 752 501 L 752 502 L 751 503 L 750 503 L 750 504 L 742 512 L 741 512 L 741 513 L 737 517 L 736 517 L 728 525 L 728 526 L 726 528 L 725 528 L 717 536 L 717 537 L 714 540 L 713 540 L 713 541 L 697 557 L 697 558 L 694 561 L 694 562 L 692 564 L 692 565 L 691 566 L 691 567 L 690 568 L 690 569 L 689 570 L 689 571 L 688 572 L 688 574 L 687 575 L 687 578 L 686 579 L 686 585 L 685 586 L 685 589 L 686 590 L 686 597 L 687 598 L 687 601 L 688 602 L 688 604 L 689 605 L 689 606 L 690 607 L 690 609 L 691 610 L 691 611 L 692 612 L 692 613 L 694 615 L 694 616 L 695 617 L 695 618 L 697 620 L 697 621 L 704 628 L 705 628 L 706 629 L 713 629 L 714 628 L 715 628 L 831 512 L 831 511 L 833 509 L 833 508 L 836 505 L 836 504 L 837 503 L 837 502 L 839 500 L 839 499 L 840 498 L 840 497 L 841 496 L 841 495 L 842 494 L 842 493 L 843 492 L 843 490 L 844 489 L 844 488 L 845 487 L 845 485 L 846 484 L 846 482 L 847 481 L 847 478 L 848 477 L 848 474 L 849 473 L 849 468 L 850 467 L 850 443 L 849 442 L 849 438 L 848 437 L 848 434 L 847 433 L 847 430 L 846 429 L 846 427 L 845 426 L 845 424 L 844 423 L 844 421 L 843 420 L 843 419 L 842 418 L 842 417 L 841 416 L 841 415 L 840 414 L 840 413 L 839 412 L 839 411 L 838 410 L 838 409 L 836 407 L 836 406 L 834 404 L 834 403 L 832 401 L 832 400 L 829 397 L 829 396 L 815 382 L 814 382 L 811 379 L 810 379 L 807 376 L 806 376 L 805 375 L 804 375 L 802 373 L 801 373 L 800 372 L 799 372 L 798 371 L 797 371 L 796 370 L 795 370 L 794 369 L 793 369 L 792 368 L 791 368 L 790 367 L 788 367 L 787 366 L 786 366 L 785 365 L 783 365 L 782 364 L 779 364 L 778 363 L 775 363 L 774 362 L 770 362 L 769 361 L 760 361 L 759 360 Z M 264 360 L 263 361 L 255 361 L 254 362 L 250 362 L 249 363 L 245 363 L 244 364 L 242 364 L 241 365 L 239 365 L 238 366 L 237 366 L 236 367 L 234 367 L 233 368 L 231 368 L 230 369 L 229 369 L 228 370 L 227 370 L 226 371 L 225 371 L 224 372 L 223 372 L 221 374 L 220 374 L 218 376 L 217 376 L 216 377 L 215 377 L 212 380 L 211 380 L 206 385 L 205 385 L 198 392 L 198 393 L 194 397 L 194 398 L 191 401 L 191 402 L 189 404 L 189 405 L 188 406 L 188 407 L 186 409 L 186 410 L 185 411 L 185 412 L 184 413 L 184 414 L 183 415 L 183 416 L 182 417 L 182 418 L 181 419 L 181 420 L 180 421 L 180 423 L 179 424 L 179 426 L 178 427 L 178 429 L 177 430 L 177 433 L 176 434 L 176 437 L 175 438 L 175 443 L 174 444 L 174 470 L 175 471 L 175 475 L 176 476 L 176 480 L 177 481 L 177 483 L 178 484 L 178 487 L 179 488 L 179 490 L 180 491 L 180 492 L 181 493 L 181 494 L 182 495 L 182 497 L 183 498 L 183 499 L 184 500 L 184 501 L 185 502 L 185 503 L 187 505 L 187 506 L 188 507 L 188 508 L 191 511 L 191 512 L 193 514 L 193 515 L 202 524 L 202 525 L 205 528 L 206 528 L 207 529 L 207 530 L 208 530 L 218 540 L 218 541 L 222 545 L 223 545 L 232 554 L 232 555 L 236 559 L 237 559 L 251 573 L 251 574 L 252 574 L 253 575 L 253 576 L 254 576 L 255 577 L 255 578 L 260 583 L 261 583 L 266 588 L 266 589 L 267 589 L 282 604 L 282 605 L 283 606 L 284 606 L 305 627 L 306 627 L 307 628 L 308 628 L 309 629 L 316 629 L 317 628 L 318 628 L 326 620 L 326 619 L 328 617 L 328 616 L 330 614 L 330 613 L 331 612 L 331 611 L 332 610 L 332 609 L 333 608 L 333 607 L 334 606 L 334 605 L 335 604 L 335 601 L 336 600 L 336 597 L 337 596 L 337 591 L 338 590 L 338 585 L 337 584 L 337 579 L 336 578 L 336 575 L 335 574 L 335 572 L 334 571 L 334 569 L 333 568 L 333 567 L 331 565 L 331 564 L 330 563 L 330 562 L 328 560 L 328 559 L 323 554 L 323 553 L 246 476 L 246 475 L 244 473 L 244 472 L 243 471 L 243 469 L 242 468 L 242 467 L 241 466 L 241 462 L 240 461 L 240 457 L 241 456 L 241 452 L 242 451 L 242 450 L 243 449 L 243 448 L 244 447 L 244 446 L 246 444 L 246 443 L 251 438 L 252 438 L 254 436 L 255 436 L 256 435 L 257 435 L 258 434 L 260 434 L 261 433 L 264 433 L 265 432 L 275 432 L 276 433 L 279 433 L 280 434 L 281 434 L 282 435 L 283 435 L 284 436 L 285 436 L 286 437 L 287 437 L 290 440 L 291 440 L 307 456 L 308 456 L 312 460 L 312 461 L 313 461 L 314 462 L 314 463 L 315 463 L 341 489 L 342 489 L 344 491 L 344 492 L 345 493 L 346 493 L 347 494 L 347 495 L 348 495 L 389 536 L 390 536 L 392 538 L 392 539 L 393 539 L 394 540 L 394 541 L 395 542 L 396 542 L 408 554 L 409 554 L 412 557 L 413 557 L 415 559 L 416 559 L 417 560 L 418 560 L 419 561 L 420 561 L 421 562 L 422 562 L 423 563 L 424 563 L 425 564 L 427 564 L 428 565 L 431 565 L 432 566 L 436 566 L 437 567 L 454 567 L 455 566 L 459 566 L 460 565 L 463 565 L 464 564 L 465 564 L 466 563 L 468 563 L 469 562 L 471 562 L 472 561 L 474 561 L 475 560 L 476 560 L 477 559 L 478 559 L 479 558 L 480 558 L 484 554 L 484 553 L 485 552 L 485 545 L 484 544 L 484 543 L 483 542 L 483 541 L 482 540 L 482 539 L 479 536 L 479 535 L 475 531 L 475 530 L 471 526 L 471 525 L 456 510 L 456 509 L 452 505 L 451 505 L 448 502 L 448 501 L 341 394 L 340 394 L 339 393 L 339 392 L 338 391 L 337 391 L 336 390 L 336 389 L 334 387 L 333 387 L 326 380 L 325 380 L 322 377 L 321 377 L 319 375 L 318 375 L 316 373 L 315 373 L 314 372 L 313 372 L 311 370 L 310 370 L 309 369 L 307 369 L 306 368 L 305 368 L 304 367 L 303 367 L 302 366 L 300 366 L 299 365 L 297 365 L 296 364 L 294 364 L 293 363 L 289 363 L 288 362 L 284 362 L 283 361 L 275 361 L 274 360 Z M 384 305 L 383 306 L 378 306 L 377 307 L 375 307 L 374 308 L 373 308 L 372 309 L 371 309 L 369 311 L 368 311 L 363 316 L 363 317 L 361 319 L 361 320 L 360 321 L 360 322 L 359 323 L 359 325 L 358 326 L 358 340 L 359 341 L 359 343 L 360 344 L 360 345 L 361 346 L 361 347 L 362 348 L 362 349 L 364 351 L 364 352 L 406 394 L 407 394 L 478 465 L 479 465 L 483 469 L 484 469 L 486 471 L 487 471 L 488 472 L 489 472 L 490 473 L 491 473 L 492 474 L 493 474 L 494 475 L 496 475 L 497 476 L 499 476 L 500 477 L 504 477 L 505 478 L 520 478 L 521 477 L 524 477 L 525 476 L 528 476 L 529 475 L 530 475 L 531 474 L 533 474 L 534 473 L 535 473 L 537 471 L 538 471 L 539 470 L 540 470 L 542 468 L 543 468 L 646 365 L 647 365 L 647 364 L 655 356 L 656 356 L 656 355 L 662 349 L 662 348 L 663 347 L 663 346 L 664 345 L 664 344 L 665 343 L 665 342 L 666 341 L 666 338 L 667 337 L 667 328 L 666 327 L 666 325 L 665 324 L 665 322 L 664 321 L 664 320 L 663 319 L 663 318 L 655 310 L 654 310 L 653 309 L 652 309 L 651 308 L 650 308 L 649 307 L 646 307 L 645 306 L 642 306 L 641 305 L 632 305 L 631 306 L 628 306 L 627 307 L 624 307 L 623 308 L 622 308 L 621 309 L 620 309 L 618 311 L 617 311 L 614 314 L 613 314 L 572 355 L 571 355 L 532 394 L 531 394 L 529 396 L 528 396 L 527 397 L 526 397 L 525 398 L 523 398 L 522 399 L 519 399 L 518 400 L 507 400 L 506 399 L 503 399 L 502 398 L 500 398 L 499 397 L 498 397 L 497 396 L 496 396 L 494 394 L 493 394 L 477 378 L 476 378 L 474 376 L 474 375 L 473 375 L 472 374 L 472 373 L 471 372 L 470 372 L 412 314 L 411 314 L 409 312 L 408 312 L 406 310 L 405 310 L 404 309 L 403 309 L 402 308 L 400 308 L 399 307 L 397 307 L 396 306 L 392 306 L 391 305 Z M 786 246 L 785 247 L 782 247 L 781 248 L 779 248 L 778 249 L 776 249 L 775 250 L 774 250 L 773 251 L 772 251 L 771 252 L 770 252 L 769 253 L 768 253 L 765 256 L 764 256 L 756 264 L 756 265 L 754 267 L 754 268 L 752 270 L 752 271 L 751 272 L 751 273 L 750 274 L 750 276 L 749 277 L 749 278 L 748 279 L 748 282 L 747 283 L 747 287 L 746 288 L 746 298 L 747 299 L 747 304 L 748 305 L 748 308 L 749 309 L 749 310 L 750 311 L 750 313 L 751 314 L 751 315 L 752 316 L 752 317 L 754 319 L 754 320 L 756 322 L 756 323 L 765 332 L 766 332 L 768 334 L 769 334 L 770 335 L 771 335 L 773 337 L 775 337 L 776 338 L 777 338 L 778 339 L 780 339 L 781 340 L 784 340 L 785 341 L 790 341 L 791 342 L 799 342 L 800 341 L 806 341 L 807 340 L 809 340 L 810 339 L 812 339 L 813 338 L 814 338 L 815 337 L 816 337 L 817 336 L 818 336 L 819 335 L 820 335 L 821 334 L 822 334 L 824 332 L 825 332 L 835 322 L 835 321 L 837 319 L 837 318 L 838 317 L 838 316 L 839 315 L 839 314 L 840 313 L 840 312 L 841 311 L 841 309 L 842 308 L 842 306 L 843 305 L 843 301 L 844 300 L 844 287 L 843 286 L 843 282 L 842 281 L 842 279 L 841 278 L 841 276 L 840 275 L 840 274 L 839 273 L 839 272 L 838 271 L 838 270 L 836 268 L 836 267 L 833 264 L 833 263 L 827 257 L 826 257 L 823 254 L 822 254 L 821 253 L 820 253 L 819 252 L 818 252 L 817 251 L 816 251 L 815 250 L 814 250 L 813 249 L 811 249 L 810 248 L 808 248 L 807 247 L 804 247 L 803 246 Z M 505 246 L 504 247 L 500 247 L 499 248 L 497 248 L 496 249 L 494 249 L 493 250 L 492 250 L 491 251 L 490 251 L 489 252 L 488 252 L 486 254 L 485 254 L 483 256 L 482 256 L 473 265 L 473 266 L 471 268 L 471 269 L 470 270 L 470 271 L 469 272 L 469 273 L 468 274 L 468 275 L 467 276 L 467 277 L 466 278 L 466 281 L 465 282 L 465 285 L 464 286 L 464 304 L 465 305 L 465 309 L 466 310 L 466 312 L 467 313 L 467 314 L 468 315 L 468 317 L 469 318 L 469 319 L 471 321 L 471 322 L 472 323 L 472 324 L 477 329 L 477 330 L 478 331 L 479 331 L 480 332 L 480 333 L 481 333 L 484 336 L 485 336 L 486 337 L 487 337 L 489 339 L 490 339 L 491 340 L 492 340 L 493 341 L 495 341 L 496 342 L 498 342 L 499 343 L 502 343 L 503 344 L 519 344 L 520 343 L 523 343 L 524 342 L 527 342 L 528 341 L 529 341 L 530 340 L 532 340 L 533 339 L 534 339 L 536 337 L 537 337 L 539 335 L 540 335 L 550 325 L 550 324 L 552 322 L 552 321 L 553 320 L 553 319 L 554 318 L 554 317 L 555 316 L 555 315 L 556 314 L 556 312 L 557 311 L 557 309 L 558 308 L 558 305 L 559 304 L 559 286 L 558 285 L 558 281 L 557 280 L 557 278 L 556 277 L 556 276 L 555 275 L 555 274 L 554 273 L 554 272 L 553 271 L 553 270 L 552 269 L 552 268 L 550 266 L 550 265 L 540 255 L 539 255 L 537 253 L 536 253 L 535 252 L 534 252 L 533 251 L 532 251 L 531 250 L 530 250 L 529 249 L 527 249 L 526 248 L 524 248 L 523 247 L 519 247 L 518 246 Z M 220 246 L 219 247 L 215 247 L 214 248 L 212 248 L 211 249 L 209 249 L 208 250 L 207 250 L 206 251 L 205 251 L 204 252 L 203 252 L 201 254 L 200 254 L 198 256 L 197 256 L 189 264 L 189 265 L 187 267 L 187 268 L 185 270 L 185 271 L 184 272 L 184 273 L 183 274 L 183 276 L 182 277 L 182 278 L 181 279 L 181 282 L 180 283 L 180 287 L 179 288 L 179 299 L 180 300 L 180 305 L 181 306 L 181 308 L 182 309 L 182 311 L 183 312 L 183 313 L 184 314 L 184 315 L 185 316 L 185 317 L 186 318 L 186 319 L 188 321 L 188 322 L 192 326 L 192 327 L 194 329 L 195 329 L 199 333 L 200 333 L 202 335 L 203 335 L 204 336 L 205 336 L 206 337 L 207 337 L 208 338 L 209 338 L 210 339 L 212 339 L 213 340 L 216 340 L 217 341 L 223 341 L 224 342 L 231 342 L 232 341 L 237 341 L 238 340 L 242 340 L 243 339 L 245 339 L 246 338 L 247 338 L 248 337 L 249 337 L 250 336 L 251 336 L 252 335 L 253 335 L 255 333 L 256 333 L 261 328 L 262 328 L 263 327 L 263 326 L 268 321 L 268 320 L 269 319 L 269 318 L 271 316 L 271 315 L 272 314 L 272 313 L 273 312 L 273 310 L 274 309 L 274 307 L 275 306 L 275 302 L 276 301 L 276 285 L 275 284 L 275 281 L 274 280 L 274 278 L 273 277 L 273 275 L 272 274 L 272 273 L 271 272 L 271 271 L 270 270 L 270 269 L 268 267 L 268 266 L 264 262 L 264 261 L 261 258 L 260 258 L 256 254 L 255 254 L 254 253 L 253 253 L 251 251 L 250 251 L 249 250 L 247 250 L 246 249 L 245 249 L 244 248 L 242 248 L 241 247 L 237 247 L 236 246 Z" fill="black"/>
</svg>